<svg width="18" height="29" viewBox="0 0 18 29" fill="none" xmlns="http://www.w3.org/2000/svg">
<path d="M15.0134 28.9999C14.6292 29.0009 14.2495 28.9326 13.9024 28.8C13.5552 28.6674 13.2494 28.4738 13.0073 28.2335L0.585075 15.8061C0.206796 15.4355 0 14.9706 0 14.4909C0 14.0111 0.206796 13.5462 0.585075 13.1756L13.4445 0.748238C13.8811 0.325258 14.5084 0.0592605 15.1885 0.00876442C15.8685 -0.0417317 16.5457 0.127409 17.0709 0.478977C17.5961 0.830545 17.9264 1.33574 17.9891 1.88343C18.0518 2.43112 17.8418 2.97644 17.4052 3.39942L5.90889 14.5012L17.0195 25.603C17.334 25.9071 17.5337 26.2773 17.5952 26.6699C17.6566 27.0625 17.5771 27.461 17.366 27.8184C17.155 28.1757 16.8212 28.4769 16.4043 28.6863C15.9874 28.8957 15.5047 29.0045 15.0134 28.9999Z" fill="black"/>
</svg>
