<svg width="36" height="36" viewBox="0 0 36 36" fill="none" xmlns="http://www.w3.org/2000/svg">
<g opacity="0.6" clip-path="url(#clip0_497_714)">
<path d="M32 4H4C3.46957 4 2.96086 4.21071 2.58579 4.58579C2.21071 4.96086 2 5.46957 2 6V30C2 30.5304 2.21071 31.0391 2.58579 31.4142C2.96086 31.7893 3.46957 32 4 32H32C32.5304 32 33.0391 31.7893 33.4142 31.4142C33.7893 31.0391 34 30.5304 34 30V6C34 5.46957 33.7893 4.96086 33.4142 4.58579C33.0391 4.21071 32.5304 4 32 4ZM4 30V6H32V30H4Z" fill="black"/>
<path d="M8.92004 14C9.51339 14 10.0934 13.8241 10.5868 13.4944C11.0801 13.1648 11.4646 12.6962 11.6917 12.1481C11.9187 11.5999 11.9782 10.9967 11.8624 10.4147C11.7466 9.83279 11.4609 9.29824 11.0414 8.87868C10.6218 8.45912 10.0873 8.1734 9.50531 8.05765C8.92337 7.94189 8.32017 8.0013 7.77199 8.22836C7.22382 8.45543 6.75528 8.83994 6.42563 9.33329C6.09599 9.82664 5.92004 10.4067 5.92004 11C5.92004 11.7957 6.23611 12.5587 6.79872 13.1213C7.36133 13.6839 8.12439 14 8.92004 14ZM8.92004 9.4C9.23691 9.39802 9.54723 9.49017 9.81166 9.66478C10.0761 9.83938 10.2827 10.0886 10.4054 10.3807C10.528 10.6729 10.5611 10.9949 10.5005 11.306C10.4399 11.617 10.2883 11.903 10.065 12.1278C9.84159 12.3526 9.55652 12.5059 9.24588 12.5685C8.93525 12.631 8.61303 12.5999 8.32008 12.4791C8.02714 12.3583 7.77666 12.1533 7.6004 11.8899C7.42415 11.6266 7.33005 11.3169 7.33004 11C7.33267 10.5791 7.50103 10.1762 7.79864 9.8786C8.09626 9.58098 8.49916 9.41262 8.92004 9.41V9.4Z" fill="black"/>
<path d="M22.78 15.3699L17.38 20.7699L13.38 16.7699C13.1927 16.5836 12.9392 16.4791 12.675 16.4791C12.4109 16.4791 12.1574 16.5836 11.97 16.7699L5.92004 22.8999V25.7299L12.71 18.9399L16 22.1799L12.25 25.9299H15L23.45 17.4799L30 23.9999V21.1799L24.19 15.3699C24.0027 15.1836 23.7492 15.0791 23.485 15.0791C23.2209 15.0791 22.9674 15.1836 22.78 15.3699Z" fill="black"/>
</g>
<defs>
<clipPath id="clip0_497_714">
<rect width="36" height="36" fill="white"/>
</clipPath>
</defs>
</svg>
