<svg width="22" height="22" viewBox="0 0 22 22" fill="none" xmlns="http://www.w3.org/2000/svg">
<path d="M10.6783 0.897538C8.12391 0.871251 5.66369 1.87316 3.83837 3.68306C2.01306 5.49296 0.971987 7.96277 0.94397 10.5497C0.953812 12.5941 1.6032 14.5827 2.79886 16.23C3.99452 17.8772 5.67493 19.0983 7.59873 19.7179C8.08544 19.8075 8.26243 19.5117 8.26243 19.2518C8.26243 18.9919 8.26243 18.4184 8.26243 17.6118C5.55451 18.1943 4.9793 16.3212 4.9793 16.3212C4.79904 15.7332 4.4158 15.2306 3.89967 14.9052C3.01473 14.3137 3.97047 14.3227 3.97047 14.3227C4.27635 14.3641 4.569 14.4751 4.82648 14.6474C5.08396 14.8197 5.29958 15.0488 5.45717 15.3175C5.73179 15.7998 6.18241 16.1536 6.71203 16.3027C7.24164 16.4519 7.80792 16.3845 8.28898 16.1151C8.33846 15.6243 8.55791 15.1672 8.90844 14.8246C6.74918 14.5826 4.48373 13.7581 4.48373 10.0568C4.46442 9.09127 4.81669 8.15601 5.46602 7.44881C5.1703 6.61988 5.20521 5.70686 5.56336 4.90358C5.56336 4.90358 6.38636 4.64368 8.21819 5.88941C9.81276 5.45908 11.4908 5.45908 13.0854 5.88941C14.9437 4.64368 15.7402 4.90358 15.7402 4.90358C16.0983 5.70686 16.1333 6.61988 15.8375 7.44881C16.5019 8.14305 16.8733 9.07203 16.8729 10.0388C16.8729 13.7491 14.5898 14.5647 12.4482 14.8067C12.6827 15.0372 12.8638 15.3175 12.9786 15.6275C13.0934 15.9374 13.1389 16.2692 13.1119 16.5991V19.2429C13.1119 19.2429 13.2889 19.8075 13.7756 19.7089C15.694 19.0855 17.3687 17.8641 18.5607 16.2192C19.7526 14.5743 20.4008 12.59 20.4127 10.5497C20.3847 7.96277 19.3436 5.49296 17.5183 3.68306C15.6929 1.87316 13.2327 0.871251 10.6783 0.897538Z" fill="#231F20"/>
</svg>
