<svg width="22" height="21" viewBox="0 0 22 21" fill="none" xmlns="http://www.w3.org/2000/svg">
<path d="M10.9149 4.88218C7.90081 4.88218 5.46962 7.17568 5.46962 10.0191C5.46962 12.8625 7.90081 15.156 10.9149 15.156C13.929 15.156 16.3602 12.8625 16.3602 10.0191C16.3602 7.17568 13.929 4.88218 10.9149 4.88218ZM10.9149 13.3587C8.96713 13.3587 7.37477 11.861 7.37477 10.0191C7.37477 8.17713 8.96239 6.67943 10.9149 6.67943C12.8675 6.67943 14.4551 8.17713 14.4551 10.0191C14.4551 11.861 12.8627 13.3587 10.9149 13.3587ZM17.8531 4.67205C17.8531 5.3382 17.2844 5.87022 16.583 5.87022C15.8768 5.87022 15.3129 5.33373 15.3129 4.67205C15.3129 4.01038 15.8816 3.47389 16.583 3.47389C17.2844 3.47389 17.8531 4.01038 17.8531 4.67205ZM21.4596 5.8881C21.379 4.2831 20.9904 2.86139 19.744 1.69005C18.5023 0.518712 16.9953 0.152109 15.2939 0.0716353C13.5404 -0.0222508 8.28469 -0.0222508 6.53119 0.0716353C4.83457 0.147638 3.32752 0.514241 2.08111 1.68558C0.834713 2.85692 0.45084 4.27863 0.365535 5.88363C0.266013 7.53781 0.266013 12.4959 0.365535 14.1501C0.446101 15.7551 0.834713 17.1768 2.08111 18.3481C3.32752 19.5195 4.82983 19.8861 6.53119 19.9665C8.28469 20.0604 13.5404 20.0604 15.2939 19.9665C16.9953 19.8905 18.5023 19.5239 19.744 18.3481C20.9857 17.1768 21.3743 15.7551 21.4596 14.1501C21.5591 12.4959 21.5591 7.54228 21.4596 5.8881ZM19.1943 15.925C18.8246 16.8012 18.109 17.4763 17.1754 17.8295C15.7773 18.3526 12.4599 18.2319 10.9149 18.2319C9.36996 18.2319 6.0478 18.3481 4.65448 17.8295C3.72561 17.4808 3.00999 16.8057 2.6356 15.925C2.08111 14.6061 2.20907 11.4766 2.20907 10.0191C2.20907 8.56162 2.08585 5.42761 2.6356 4.11321C3.00525 3.23694 3.72087 2.56185 4.65448 2.20866C6.05254 1.68558 9.36996 1.80629 10.9149 1.80629C12.4599 1.80629 15.7821 1.69005 17.1754 2.20866C18.1042 2.55738 18.8199 3.23247 19.1943 4.11321C19.7487 5.43208 19.6208 8.56162 19.6208 10.0191C19.6208 11.4766 19.7487 14.6106 19.1943 15.925Z" fill="black"/>
</svg>
