<svg width="164" height="63" viewBox="0 0 164 63" fill="none" xmlns="http://www.w3.org/2000/svg">
<g clip-path="url(#clip0_497_1001)">
<path d="M8.86237 21.3183C8.86237 21.3183 4.93961 15.3874 1.28319 16.7807C1.28319 16.7807 0.401279 17.0971 0.948066 16.2342C1.49485 15.3712 4.95196 14.2566 8.86413 21.3183H8.86237Z" fill="#30C13E"/>
<path d="M8.85527 19.1717C8.85527 19.1717 2.86354 11.1427 2.37848 10.4973C0.891575 8.51975 1.56359 6.75612 2.06452 7.68738C2.56369 8.62043 8.85527 19.1717 8.85527 19.1717Z" fill="#E46EF9"/>
<path d="M7.84808 14.0785C7.84808 14.0785 6.02075 10.4308 7.15136 8.84517C8.28198 7.25952 7.62231 11.718 7.62231 11.718L7.84631 14.0767L7.84808 14.0785Z" fill="#FFF764"/>
<path d="M76.9832 46.1492C76.6639 46.1492 76.3623 46.2194 76.0889 46.3452C73.736 44.4647 71.3936 41.786 70.5117 40.7397C73.3021 39.2475 75.2052 36.2668 75.2052 32.833C75.2052 30.7476 74.5015 28.8293 73.325 27.3102C73.9441 26.9722 74.3657 26.307 74.3657 25.5412C74.3657 24.4337 73.4855 23.5366 72.399 23.5366C71.5206 23.5366 70.778 24.1227 70.524 24.9335C69.307 24.2791 67.9189 23.907 66.4478 23.907C64.8833 23.907 63.4158 24.3276 62.1458 25.0594C61.9342 24.1856 61.1616 23.5366 60.2391 23.5366C59.1526 23.5366 58.2725 24.4337 58.2725 25.5412C58.2725 26.3825 58.7822 27.1016 59.5036 27.4001C58.3695 28.9048 57.6922 30.7889 57.6922 32.833C57.6922 36.2452 59.5707 39.208 62.331 40.7109C62.331 40.7109 56.9514 46.5466 54.8859 46.5466C54.8859 46.5466 53.7888 46.8756 54.3056 47.8625C54.3056 47.8625 55.0799 49.7053 57.2759 48.454C58.5882 47.7061 60.1104 46.3236 61.1193 45.3312L60.7048 47.9866C60.5002 49.2972 60.8353 50.5754 61.5391 51.5822C61.525 55.2371 62.5409 59.4996 62.5409 59.4996L62.1952 59.7369C60.6536 60.2295 60.6342 60.9469 60.9006 61.4682C61.1775 62.0112 61.7701 62.3024 62.3681 62.2503C63.0666 62.1891 63.7509 61.8458 64.266 61.5096C64.781 61.1734 65.2784 60.2206 65.1056 59.6237C64.4335 57.2938 64.176 55.0501 64.0843 53.4375C64.2801 53.4968 64.4794 53.5436 64.6858 53.5777C65.804 53.7593 66.8958 53.5238 67.813 52.988C68.0459 54.5144 68.381 57.0744 68.5609 60.0929C68.5979 60.715 69.24 61.5204 69.8203 61.7199C70.3935 61.9177 71.1273 62.0831 71.8134 61.9788C72.4149 61.8871 72.9352 61.461 73.0781 60.8588C73.2139 60.2853 73.0269 59.5949 71.4148 59.4925L71.0232 59.3468C71.0232 59.3468 70.6334 54.3526 69.8979 50.5394C70.0231 50.2158 70.1166 49.8761 70.1713 49.5201L70.8962 44.8746C72.4131 46.5879 73.7959 47.6899 74.7943 48.3605C74.7943 48.3713 74.7943 48.3803 74.7943 48.3911C74.7943 49.628 75.7785 50.6329 76.9938 50.6329C78.209 50.6329 79.1933 49.6298 79.1933 48.3911C79.1933 47.1524 78.209 46.1492 76.9938 46.1492H76.9832Z" fill="white" stroke="#A7A9AC" stroke-linecap="round" stroke-linejoin="round"/>
<path d="M66.8535 37.243C65.7352 37.243 64.6822 36.817 63.8638 36.0277C62.9872 35.181 62.5039 34.0358 62.5039 32.8061C62.5039 31.456 63.0966 30.1957 64.1284 29.3489C64.3947 29.1314 64.7828 29.1746 64.9962 29.4442C65.2096 29.7157 65.1673 30.1112 64.9027 30.3287C64.1619 30.9364 63.7386 31.8389 63.7386 32.8061C63.7386 33.6888 64.0843 34.5086 64.714 35.1145C65.3419 35.7203 66.1639 36.0277 67.0334 35.9792C68.6456 35.8893 69.9367 34.5284 69.9737 32.8816C70.0019 31.6537 69.3229 30.5067 68.2452 29.9584C67.94 29.8038 67.8166 29.4262 67.9682 29.1152C68.1199 28.8042 68.4903 28.6766 68.7955 28.833C70.3 29.597 71.2472 31.1971 71.2084 32.9122C71.1555 35.2115 69.3511 37.1118 67.1004 37.2377C67.0175 37.243 66.9346 37.2448 66.8535 37.2448V37.243Z" fill="#4EA8E4"/>
<path d="M66.5273 31.251C66.2027 31.251 65.9311 30.9939 65.9117 30.6595L65.7776 28.3673C65.7582 28.0204 66.0175 27.7219 66.3579 27.7022C66.6983 27.6806 66.9911 27.9467 67.0105 28.2936L67.1446 30.5858C67.164 30.9328 66.9047 31.2312 66.5643 31.251C66.552 31.251 66.5396 31.251 66.5273 31.251Z" fill="#4EA8E4"/>
<path d="M67.1094 38.7856C67.0882 38.7856 67.0653 38.7856 67.0441 38.7838C66.4003 38.7424 65.9647 38.1006 65.947 38.0737C65.9065 38.0125 65.9223 37.928 65.9823 37.8867C66.0423 37.8453 66.1252 37.8615 66.1658 37.9226C66.1693 37.928 66.5485 38.4835 67.0618 38.5159C67.351 38.5375 67.6421 38.3793 67.9208 38.0557C67.9684 37.9999 68.0531 37.9945 68.1077 38.0431C68.1624 38.0916 68.1677 38.1779 68.1201 38.2337C67.8026 38.6004 67.4639 38.7874 67.1094 38.7874V38.7856Z" fill="#4EA8E4"/>
<g opacity="0.3">
<path d="M60.2834 26.8123C60.9117 26.8123 61.4211 26.2932 61.4211 25.6527C61.4211 25.0123 60.9117 24.4932 60.2834 24.4932C59.6551 24.4932 59.1458 25.0123 59.1458 25.6527C59.1458 26.2932 59.6551 26.8123 60.2834 26.8123Z" fill="#4EA8E4"/>
</g>
<g opacity="0.3">
<path d="M72.3955 26.7654C73.0238 26.7654 73.5332 26.2463 73.5332 25.6059C73.5332 24.9654 73.0238 24.4463 72.3955 24.4463C71.7672 24.4463 71.2578 24.9654 71.2578 25.6059C71.2578 26.2463 71.7672 26.7654 72.3955 26.7654Z" fill="#4EA8E4"/>
</g>
<path d="M68.0319 44.4558L68.0637 43.9974L67.8996 44.0064L67.9349 43.4868L65.3632 43.5983L65.2786 45.112L67.8291 45.0203L67.8661 44.4666L68.0301 44.4576L68.0319 44.4558ZM65.5114 44.8819L65.5714 43.805L67.7003 43.7133L67.6262 44.8046L65.5114 44.8801V44.8819Z" fill="#4EA8E4"/>
<path d="M65.7934 43.9451L65.7405 44.7164L65.961 44.7056L66.0139 43.9343L65.7934 43.9451Z" fill="#4EA8E4"/>
<path d="M66.2431 43.9236L66.1902 44.6949L66.4107 44.6823L66.4618 43.9128L66.2431 43.9236Z" fill="#4EA8E4"/>
<path d="M66.6913 43.9002L66.6401 44.6714L66.8589 44.6607L66.9118 43.8894L66.6913 43.9002Z" fill="#4EA8E4"/>
<path d="M67.141 43.8787L67.0881 44.65L67.3086 44.6374L67.3615 43.8679L67.141 43.8787Z" fill="#4EA8E4"/>
<path d="M22.846 19.8064C22.7225 19.8855 22.5585 19.8495 22.4808 19.7237L13.7869 5.78902C13.7093 5.66317 13.7446 5.49597 13.8681 5.41687C13.9915 5.33777 14.1556 5.37373 14.2332 5.49957L22.9271 19.4342C23.0047 19.5601 22.9694 19.7273 22.846 19.8064Z" fill="#F7DE72"/>
<path d="M24.922 17.87C24.8303 17.9293 24.7103 17.9275 24.6186 17.8556L11.7726 7.79336C11.6562 7.70347 11.6351 7.53268 11.7233 7.41582C11.8114 7.29896 11.979 7.27559 12.0937 7.36728L24.9396 17.4295C25.056 17.5194 25.0772 17.6902 24.989 17.8071C24.9696 17.8322 24.9467 17.8538 24.922 17.87Z" fill="#F7DE72"/>
<path d="M26.222 15.3281C26.1585 15.3694 26.0774 15.382 25.9998 15.3586L10.5522 10.3805C10.4128 10.3356 10.3352 10.1846 10.3793 10.0425C10.4234 9.90052 10.5716 9.82142 10.7109 9.86636L26.1585 14.8444C26.2979 14.8894 26.3755 15.0404 26.3314 15.1824C26.312 15.2454 26.2714 15.2957 26.222 15.3281Z" fill="#F7DE72"/>
<path d="M26.5924 12.4858C26.5536 12.5109 26.5095 12.5253 26.4619 12.5271L10.2752 13.2336C10.1288 13.2408 10.0054 13.124 10.0001 12.9766C9.99301 12.8273 10.1077 12.7015 10.2523 12.6961L26.439 11.9896C26.5854 11.9824 26.7088 12.0992 26.7141 12.2467C26.7176 12.3455 26.6683 12.4354 26.5924 12.4858Z" fill="#F7DE72"/>
<path d="M25.9855 9.68465C25.9731 9.69364 25.959 9.70083 25.9449 9.70623L10.9718 16.0129C10.836 16.0704 10.6825 16.0039 10.6261 15.8673C10.5696 15.7288 10.6349 15.5724 10.7689 15.5149L25.7421 9.20824C25.8779 9.15071 26.0313 9.21723 26.0878 9.35386C26.1372 9.47611 26.0913 9.61634 25.9855 9.68465Z" fill="#F7DE72"/>
<path d="M12.5223 18.4112C12.4165 18.4796 12.2736 18.4634 12.1854 18.3663C12.0866 18.2566 12.0937 18.0858 12.2013 17.9852L24.1548 6.83885C24.2606 6.73818 24.4299 6.74537 24.5287 6.85503C24.6275 6.9647 24.6204 7.13549 24.5128 7.23617L12.5593 18.3825C12.547 18.3933 12.5347 18.4022 12.5223 18.4112Z" fill="#F7DE72"/>
<path d="M14.7519 20.1587C14.6743 20.2091 14.5738 20.2163 14.4874 20.1695C14.3586 20.1012 14.3075 19.9376 14.3745 19.8064L21.869 5.16516C21.936 5.03392 22.0965 4.98178 22.2253 5.0501C22.354 5.11841 22.4052 5.28201 22.3382 5.41325L14.8454 20.0545C14.8225 20.0976 14.7907 20.1336 14.7537 20.1569L14.7519 20.1587Z" fill="#F7DE72"/>
<path d="M17.4346 21.0235C17.3834 21.0559 17.3217 21.072 17.2582 21.063C17.1136 21.0433 17.0113 20.9084 17.0307 20.761L19.1579 4.39033C19.1773 4.24291 19.3096 4.13864 19.4542 4.15841C19.5988 4.17819 19.7011 4.31302 19.6817 4.46044L17.5545 20.8311C17.544 20.9138 17.4981 20.9821 17.4346 21.0235Z" fill="#F7DE72"/>
<path d="M20.246 20.9012C20.2213 20.9174 20.1914 20.93 20.1614 20.9372C20.0185 20.9695 19.8774 20.8779 19.8457 20.7322L16.3515 4.60784C16.3198 4.46222 16.4115 4.3184 16.5526 4.28604C16.6955 4.25368 16.8366 4.34536 16.8683 4.49099L20.3625 20.6154C20.3871 20.7286 20.3378 20.8419 20.246 20.9012Z" fill="#F7DE72"/>
<path d="M31.741 14.5891V22.3142" stroke="#FF97BF" stroke-width="2" stroke-linecap="round" stroke-linejoin="round"/>
<path d="M29.8467 15.1069L33.6354 21.7965" stroke="#FF97BF" stroke-width="2" stroke-linecap="round" stroke-linejoin="round"/>
<path d="M28.4585 16.52L35.0235 20.3835" stroke="#FF97BF" stroke-width="2" stroke-linecap="round" stroke-linejoin="round"/>
<path d="M27.9504 18.4507H35.5314" stroke="#FF97BF" stroke-width="2" stroke-linecap="round" stroke-linejoin="round"/>
<path d="M28.4585 20.3835L35.0235 16.52" stroke="#FF97BF" stroke-width="2" stroke-linecap="round" stroke-linejoin="round"/>
<path d="M29.8467 21.7965L33.6354 15.1069" stroke="#FF97BF" stroke-width="2" stroke-linecap="round" stroke-linejoin="round"/>
<path opacity="0.6" d="M92.5755 38.7981C93.8681 38.7981 94.9161 38.287 94.9161 37.6565C94.9161 37.026 93.8681 36.5149 92.5755 36.5149C91.2828 36.5149 90.2349 37.026 90.2349 37.6565C90.2349 38.287 91.2828 38.7981 92.5755 38.7981Z" fill="#FFDCFD"/>
<path d="M98.7223 47.5461L100.906 48.9628L98.941 49.6765L100.024 50.401L97.6075 51.2658L98.4119 51.9381L95.0676 53.353L96.2953 51.379L95.5844 50.766L97.3712 49.7089L96.5863 48.8675L98.7223 47.5461Z" fill="#FF4747"/>
<path d="M102.799 35.2708C100.991 42.5159 96.2919 41.919 96.2354 41.8903C96.2284 41.8813 96.2231 41.8705 96.216 41.8597C98.8142 40.1482 100.458 37.1207 100.349 33.6905C100.238 30.2478 97.6888 21.9258 96.0361 20.7428C95.0254 20.0201 90.1414 22.609 88.7974 23.711C86.1111 25.9133 82.7792 28.7286 82.3241 34.0267C81.9713 38.1275 84.3402 41.4264 87.8431 42.7298C87.8431 42.7298 83.654 43.4939 81.2411 36.2632C81.2411 36.2632 80.6132 34.6901 79.9377 35.1324C79.9377 35.1324 78.2479 35.4272 79.4544 38.3288C79.4544 38.3288 81.3716 45.333 87.538 45.5847L87.7302 50.1529C87.7691 50.9763 88.0107 51.7422 88.3987 52.4055C88.0936 55.9004 88.5716 59.7981 88.5716 59.7981L88.2012 59.9922C86.6137 60.3032 86.515 61.0134 86.7213 61.5635C86.9365 62.1352 87.4921 62.493 88.0936 62.5091C88.7956 62.5307 89.5117 62.2664 90.062 61.9932C90.6123 61.7199 91.2103 60.83 91.1062 60.2151C90.7393 58.0596 90.697 56.0137 90.757 54.4496C91.3726 54.6995 92.0481 54.8236 92.7501 54.7894C93.2951 54.7624 93.8137 54.6402 94.2952 54.4442C94.9955 57.0115 96.5194 59.1904 96.5194 59.1904L96.2778 59.5374C95.0096 60.5567 95.2406 61.2327 95.6728 61.6264C96.1208 62.0327 96.7769 62.0902 97.3184 61.8242C97.9499 61.515 98.4684 60.945 98.8336 60.4435C99.1987 59.9419 99.2022 59.2497 98.8318 58.7535C97.3237 56.7292 96.7505 54.322 96.5388 52.5548C97.0662 51.726 97.3537 50.73 97.3026 49.6729L96.9762 44.8458C103.723 43.4957 104.428 38.0196 104.968 36.5364C105.37 35.4308 105.039 34.5876 104.566 34.2856C103.481 33.5899 102.799 35.2672 102.799 35.2672V35.2708Z" fill="white" stroke="#A7A9AC" stroke-linecap="round" stroke-linejoin="round"/>
<path d="M89.6033 37.777C88.485 37.777 87.432 37.3509 86.6136 36.5617C85.7352 35.7149 85.2537 34.5697 85.2537 33.34C85.2537 31.9899 85.8463 30.7296 86.8782 29.8829C87.1427 29.6653 87.5325 29.7085 87.746 29.9782C87.9594 30.2496 87.9188 30.6451 87.6525 30.8627C86.9134 31.4703 86.4883 32.3728 86.4883 33.34C86.4883 34.2227 86.8341 35.0425 87.4637 35.6484C88.0917 36.2543 88.9171 36.5617 89.7832 36.5131C91.3953 36.4232 92.6864 35.0623 92.7235 33.4155C92.7517 32.1876 92.0726 31.0407 90.9949 30.4923C90.6898 30.3377 90.5663 29.9602 90.718 29.6492C90.8697 29.3381 91.2401 29.2105 91.5452 29.3669C93.0498 30.131 93.997 31.731 93.9582 33.4461C93.9053 35.7455 92.1008 37.6457 89.8502 37.7716C89.7673 37.777 89.6844 37.7788 89.6033 37.7788V37.777Z" fill="#FF4747"/>
<path d="M89.277 31.785C88.9525 31.785 88.6808 31.5279 88.6614 31.1935L88.5274 28.9013C88.508 28.5544 88.7673 28.2559 89.1077 28.2361C89.4463 28.2164 89.7409 28.4806 89.7603 28.8276L89.8944 31.1198C89.9138 31.4668 89.6545 31.7652 89.3141 31.785C89.3017 31.785 89.2894 31.785 89.277 31.785Z" fill="#FF4747"/>
<path d="M89.9791 40.33C89.1589 40.33 88.4993 39.6792 88.4993 39.1398C88.4993 38.4495 89.5364 38.4495 89.9791 38.4495C90.5153 38.4495 91.5119 38.4495 91.5119 39.1039C91.5119 39.6558 90.8046 40.33 89.9791 40.33ZM89.9791 38.7209C88.8891 38.7209 88.7638 38.96 88.7638 39.1416C88.7638 39.512 89.2736 40.0621 89.9791 40.0621C90.6846 40.0621 91.2473 39.4832 91.2473 39.1057C91.2473 38.836 90.8681 38.7209 89.9791 38.7209Z" fill="#FF4747"/>
<path d="M91.3531 45.0256L92.6689 45.0059L92.0304 45.8688H92.6883L91.8981 46.9223L92.4255 46.9798L91.3902 48.5331L91.3725 47.3448L90.9016 47.2873L91.3725 46.329L90.8081 46.1942L91.3531 45.0256Z" fill="#FF4747"/>
<path d="M79.3844 33.5669L78.7231 33.6985L79.216 36.2711L79.8773 36.1394L79.3844 33.5669Z" fill="#878787" stroke="#A0A0A0" stroke-width="0.5" stroke-miterlimit="10"/>
<path d="M78.1939 28.1095L77.7854 28.1908C77.5961 28.2285 77.4726 28.4155 77.5096 28.6084L78.4585 33.5612C78.4955 33.7542 78.6789 33.8801 78.8682 33.8424L79.2768 33.7611C79.4661 33.7234 79.5896 33.5364 79.5526 33.3435L78.6036 28.3906C78.5667 28.1977 78.3832 28.0718 78.1939 28.1095Z" fill="#30C13E" stroke="#A0A0A0" stroke-width="0.5" stroke-miterlimit="10"/>
<path d="M80.6892 34.1509H80.0154V36.7721H80.6892V34.1509Z" fill="#878787" stroke="#A0A0A0" stroke-width="0.5" stroke-miterlimit="10"/>
<path d="M80.5463 28.5632H80.13C79.9371 28.5632 79.7808 28.7226 79.7808 28.9192V33.9656C79.7808 34.1622 79.9371 34.3216 80.13 34.3216H80.5463C80.7391 34.3216 80.8955 34.1622 80.8955 33.9656V28.9192C80.8955 28.7226 80.7391 28.5632 80.5463 28.5632Z" fill="#E46EF9" stroke="#A0A0A0" stroke-width="0.5" stroke-miterlimit="10"/>
<path d="M104.218 32.8494H103.545V35.4705H104.218V32.8494Z" fill="#878787" stroke="#A0A0A0" stroke-width="0.5" stroke-miterlimit="10"/>
<path d="M104.076 27.2617H103.659C103.466 27.2617 103.31 27.4211 103.31 27.6177V32.6641C103.31 32.8607 103.466 33.02 103.659 33.02H104.076C104.268 33.02 104.425 32.8607 104.425 32.6641V27.6177C104.425 27.4211 104.268 27.2617 104.076 27.2617Z" fill="#FFF764" stroke="#A0A0A0" stroke-width="0.5" stroke-miterlimit="10"/>
<path opacity="0.8" d="M95.0589 38.7981C96.3515 38.7981 97.3995 38.287 97.3995 37.6565C97.3995 37.026 96.3515 36.5149 95.0589 36.5149C93.7662 36.5149 92.7183 37.026 92.7183 37.6565C92.7183 38.287 93.7662 38.7981 95.0589 38.7981Z" fill="#FFDCFD"/>
<path opacity="0.8" d="M85.1514 38.2264C86.0447 38.2264 86.7688 37.8731 86.7688 37.4372C86.7688 37.0013 86.0447 36.6479 85.1514 36.6479C84.2581 36.6479 83.5339 37.0013 83.5339 37.4372C83.5339 37.8731 84.2581 38.2264 85.1514 38.2264Z" fill="#FFDCFD"/>
<path d="M52.1097 47.2351C51.9227 46.8522 51.4782 46.6742 51.0778 46.5502C50.2118 46.2805 47.4902 46.5843 43.511 40.8314C46.5924 39.4489 48.7443 36.3117 48.7443 32.6604C48.7443 29.4136 47.0439 26.5731 44.5005 25.0108L45.2554 19.6876C45.3754 18.8408 44.7951 18.0498 43.9643 17.9275C43.1335 17.8053 42.3574 18.3967 42.2375 19.2435L41.5796 23.8854C41.3044 23.8333 41.0258 23.7955 40.7435 23.7703L41.4032 19.1213C41.5232 18.2745 40.9429 17.4835 40.1121 17.3612C39.2813 17.239 38.5052 17.8304 38.3853 18.6772L37.6216 24.067C33.9352 25.1187 31.2294 28.5669 31.2294 32.6622C31.2294 36.7576 33.6935 39.8875 37.1224 41.0975C37.1224 41.0975 33.2773 44.4647 29.8501 46.987C29.8501 46.987 28.5819 47.5695 28.9612 48.7974C29.3421 50.0271 30.2929 49.8329 31.1818 49.121C31.748 48.668 33.8029 47.1147 35.2228 46.045L34.7959 49.4806C34.676 50.4406 34.8435 51.3754 35.228 52.1916C33.5277 55.2281 32.3724 58.9405 32.3724 58.9405L31.9561 58.9603C30.3863 58.5666 30.0053 59.1689 29.9683 59.7567C29.9277 60.368 30.2876 60.9289 30.8255 61.2022C31.4535 61.5204 32.2137 61.5869 32.8239 61.5725C33.436 61.5581 34.3444 61.0062 34.5013 60.4039C35.1681 57.8475 36.2017 55.6398 36.9689 54.2088C37.5492 54.5899 38.2177 54.847 38.9444 54.9422C39.3607 54.9962 39.7699 54.9926 40.1685 54.9387C40.1368 57.718 40.4402 60.199 40.4402 60.199L40.0698 60.3932C38.4823 60.7042 38.3835 61.4143 38.5899 61.9644C38.8051 62.5361 39.3607 62.8939 39.9622 62.9101C40.6642 62.9316 41.3803 62.6674 41.9306 62.3941C42.4809 62.1208 43.0789 61.2309 42.9748 60.6161C42.5162 57.923 42.5656 55.3989 42.6855 53.7773C43.5463 53.0168 44.1477 51.9453 44.3012 50.7103L44.8339 46.4279C45.5465 47.2477 47.4496 49.0149 50.8009 49.2558C50.8009 49.2558 53.0233 49.1102 52.1079 47.2369L52.1097 47.2351Z" fill="white" stroke="#A7A9AC" stroke-linecap="round" stroke-linejoin="round"/>
<path d="M39.2602 37.0704C38.142 37.0704 37.089 36.6444 36.2706 35.8551C35.3939 35.0084 34.9106 33.8632 34.9106 32.6335C34.9106 31.2833 35.5033 30.0231 36.5351 29.1763C36.8015 28.9588 37.1895 29.002 37.4029 29.2716C37.6164 29.5431 37.574 29.9386 37.3095 30.1561C36.5704 30.7638 36.1453 31.6663 36.1453 32.6335C36.1453 33.5162 36.491 34.336 37.1207 34.9419C37.7486 35.5477 38.5706 35.8551 39.4402 35.8066C41.0523 35.7167 42.3434 34.3558 42.3805 32.709C42.4087 31.4811 41.7296 30.3341 40.6519 29.7858C40.3468 29.6312 40.2233 29.2536 40.375 28.9426C40.5267 28.6316 40.8971 28.504 41.2022 28.6604C42.7068 29.4244 43.6539 31.0263 43.6151 32.7396C43.5622 35.0389 41.7578 36.9392 39.5072 37.065C39.4243 37.0704 39.3414 37.0722 39.2602 37.0722V37.0704Z" fill="#FF6699"/>
<path d="M38.9357 31.0784C38.6112 31.0784 38.3395 30.8213 38.3201 30.4869L38.1861 28.1947C38.1667 27.8478 38.426 27.5493 38.7664 27.5295C39.1068 27.508 39.3996 27.774 39.419 28.121L39.553 30.4132C39.5725 30.7602 39.3132 31.0586 38.9727 31.0784C38.9604 31.0784 38.9481 31.0784 38.9357 31.0784Z" fill="#FF6699"/>
<path d="M39.6995 38.5392C39.4049 38.5392 39.1104 38.2857 38.9552 38.1293C38.6906 38.4313 38.4295 38.5643 38.1791 38.5248C37.7558 38.4565 37.5582 37.9171 37.5494 37.8938C37.5247 37.8237 37.56 37.7463 37.627 37.7212C37.6958 37.696 37.7716 37.732 37.7963 37.8003C37.8387 37.9153 37.9956 38.2228 38.2197 38.2587C38.4437 38.2929 38.6818 38.052 38.844 37.8434C38.8687 37.8111 38.9058 37.7931 38.9463 37.7913C38.9922 37.7931 39.024 37.8075 39.0504 37.838C39.1545 37.9639 39.5072 38.3145 39.7418 38.2659C39.8424 38.2461 39.9235 38.1437 39.9835 37.9621C40.0064 37.892 40.0805 37.8542 40.151 37.8776C40.2198 37.901 40.2569 37.9783 40.2339 38.0484C40.1422 38.3306 39.9923 38.4924 39.7912 38.532C39.7612 38.5374 39.7295 38.541 39.6977 38.541L39.6995 38.5392Z" fill="#FF6699"/>
<g opacity="0.3">
<path d="M38.5352 23.9503C38.5352 23.9503 39.186 23.7777 39.7892 23.7777L40.4648 19.2275C40.4648 19.2275 40.6817 18.44 39.9815 18.2441C39.2813 18.0481 39.2583 19.0315 39.2583 19.0315L38.5352 23.9503Z" fill="#FF6699"/>
</g>
<g opacity="0.3">
<path d="M43.705 24.6045C43.705 24.6045 43.1211 24.2647 42.5391 24.1029L43.0594 19.5329C43.0594 19.5329 43.0523 18.7149 43.779 18.7131C44.5057 18.7113 44.3505 19.8206 44.3505 19.8206L43.7067 24.6063L43.705 24.6045Z" fill="#FF6699"/>
</g>
<path d="M38.5029 44.3497L38.4509 45.4019L39.0886 45.4346L39.1406 44.3824L38.5029 44.3497Z" fill="#FF6699"/>
<path d="M39.3139 43.963L39.241 45.4407L39.8787 45.4734L39.9516 43.9957L39.3139 43.963Z" fill="#FF6699"/>
<path d="M40.1468 43.3773L40.043 45.4817L40.6807 45.5144L40.7845 43.41L40.1468 43.3773Z" fill="#FF6699"/>
<path d="M51.2897 43.7101L50.9895 43.6658L50.4088 47.7527L50.7091 47.797L51.2897 43.7101Z" fill="#7C7462" stroke="#A0A0A0" stroke-width="0.5" stroke-miterlimit="10"/>
<path d="M54.0993 42.2175C54.3639 42.1582 55.5668 41.8579 55.5492 41.3366C55.5351 40.9033 54.6973 40.7199 54.2651 40.6552C54.311 40.1752 54.2087 39.7132 53.9953 39.3195C54.0588 38.9545 54.3269 37.3275 54.0059 37.2736C53.6654 37.216 52.817 38.1419 52.7253 38.2426C52.5772 38.1922 52.4237 38.1581 52.2632 38.1401L51.4007 38.043C51.1978 38.0197 51.0003 38.0286 50.808 38.0592L50.6987 38.0484C50.6987 38.0484 49.6122 36.95 49.2294 37.0938C48.8467 37.2376 49.2947 38.9527 49.2947 38.9527C49.2982 38.9527 49.3158 38.9545 49.3441 38.9581C49.143 39.2332 48.9983 39.5568 48.9331 39.9127C48.6403 39.8894 47.7196 39.866 47.522 40.4179C47.3192 40.9878 48.448 41.3348 48.762 41.4193L48.6703 42.2768C48.6597 42.3775 48.6579 42.4728 48.6597 42.5645C48.6597 42.5645 47.7919 44.1717 48.1464 44.8567C48.5009 45.5416 50.2313 44.258 50.2313 44.258L50.1554 44.1771C50.3371 44.2238 50.5276 44.2598 50.7269 44.2814L51.5894 44.3784C51.7164 44.3928 51.8416 44.4 51.9633 44.4036C52.0427 44.56 52.6124 45.6207 53.3427 45.6818C54.1152 45.7484 53.8789 43.5551 53.8683 43.4634C53.9459 43.2926 54.0006 43.1002 54.0235 42.8755L54.094 42.2175H54.0993Z" fill="#E08420" stroke="#A0A0A0" stroke-miterlimit="10"/>
<path d="M135.539 15.5509C135.44 15.6265 135.299 15.6067 135.225 15.506L126.939 4.32554C126.864 4.22486 126.884 4.08104 126.983 4.00553C127.081 3.93002 127.222 3.9498 127.297 4.05048L135.583 15.2309C135.657 15.3316 135.638 15.4754 135.539 15.5509Z" fill="#FFB8F7"/>
<path d="M137.165 13.7694C137.093 13.8251 136.989 13.8323 136.908 13.7784L125.369 6.16115C125.265 6.09283 125.235 5.9508 125.302 5.84473C125.369 5.73866 125.508 5.7081 125.612 5.77642L137.151 13.3937C137.255 13.462 137.285 13.604 137.218 13.7101C137.204 13.7334 137.186 13.7532 137.165 13.7676V13.7694Z" fill="#FFB8F7"/>
<path d="M138.096 11.5273C138.045 11.5669 137.978 11.5831 137.911 11.5687L124.511 8.43333C124.39 8.40456 124.316 8.28231 124.342 8.15827C124.37 8.03422 124.49 7.95871 124.612 7.98568L138.012 11.121C138.133 11.1498 138.207 11.272 138.181 11.3961C138.169 11.45 138.139 11.4968 138.098 11.5273H138.096Z" fill="#FFB8F7"/>
<path d="M138.218 9.09684C138.188 9.12021 138.151 9.13639 138.111 9.14178L124.467 10.8659C124.344 10.882 124.233 10.7922 124.217 10.6663C124.201 10.5405 124.289 10.4272 124.413 10.411L138.056 8.68694C138.179 8.67076 138.291 8.76065 138.306 8.8865C138.317 8.97099 138.28 9.0501 138.218 9.09684Z" fill="#FFB8F7"/>
<path d="M137.518 6.77041C137.507 6.7776 137.497 6.78479 137.484 6.79198L125.242 13.1687C125.13 13.2263 124.996 13.1813 124.94 13.0699C124.883 12.9566 124.928 12.82 125.037 12.7624L137.28 6.38568C137.391 6.32815 137.525 6.37309 137.581 6.48456C137.632 6.58523 137.602 6.70569 137.518 6.77041Z" fill="#FFB8F7"/>
<path d="M126.714 15.0907C126.63 15.1572 126.508 15.1518 126.427 15.0763C126.337 14.99 126.332 14.8462 126.416 14.7527L135.78 4.4927C135.863 4.40101 136.006 4.39562 136.098 4.48011C136.188 4.56641 136.193 4.71023 136.109 4.80372L126.744 15.0637C126.736 15.0745 126.725 15.0835 126.714 15.0907Z" fill="#FFB8F7"/>
<path d="M128.718 16.4121C128.656 16.4589 128.572 16.4732 128.496 16.4409C128.381 16.3923 128.328 16.2575 128.376 16.1406L133.733 3.2343C133.78 3.11744 133.913 3.06351 134.027 3.11205C134.142 3.16059 134.195 3.29542 134.147 3.41228L128.79 16.3186C128.775 16.3564 128.75 16.3887 128.72 16.4121H128.718Z" fill="#FFB8F7"/>
<path d="M131.045 16.9568C131.004 16.9873 130.953 17.0053 130.898 17.0017C130.775 16.9945 130.679 16.8885 130.685 16.7608L131.387 2.76682C131.394 2.64097 131.498 2.54389 131.623 2.54929C131.747 2.55648 131.842 2.66255 131.837 2.79019L131.135 16.7842C131.131 16.8543 131.098 16.9154 131.046 16.955L131.045 16.9568Z" fill="#FFB8F7"/>
<path d="M133.413 16.6582C133.392 16.6744 133.369 16.687 133.344 16.6942C133.226 16.7319 133.101 16.6636 133.064 16.5432L129.028 3.14782C128.991 3.02736 129.06 2.89972 129.177 2.86197C129.295 2.82421 129.42 2.89253 129.457 3.01298L133.493 16.4083C133.521 16.5036 133.487 16.6025 133.413 16.6582Z" fill="#FFB8F7"/>
<path d="M118.544 2.00098V9.02135" stroke="#70CBE0" stroke-width="3" stroke-linecap="round" stroke-linejoin="round"/>
<path d="M116.823 2.47192L120.266 8.55205" stroke="#70CBE0" stroke-width="3" stroke-linecap="round" stroke-linejoin="round"/>
<path d="M115.562 3.75732L121.527 7.26661" stroke="#70CBE0" stroke-width="3" stroke-linecap="round" stroke-linejoin="round"/>
<path d="M115.1 5.51196H121.987" stroke="#70CBE0" stroke-width="3" stroke-linecap="round" stroke-linejoin="round"/>
<path d="M115.562 7.26661L121.527 3.75732" stroke="#70CBE0" stroke-width="3" stroke-linecap="round" stroke-linejoin="round"/>
<path d="M116.823 8.55205L120.266 2.47192" stroke="#70CBE0" stroke-width="3" stroke-linecap="round" stroke-linejoin="round"/>
<path d="M142.222 0.269775V5.99934" stroke="#FFF083" stroke-width="3" stroke-linecap="round" stroke-linejoin="round"/>
<path d="M140.816 0.652588L143.626 5.61449" stroke="#FFF083" stroke-width="3" stroke-linecap="round" stroke-linejoin="round"/>
<path d="M139.788 1.70239L144.654 4.56627" stroke="#FFF083" stroke-width="3" stroke-linecap="round" stroke-linejoin="round"/>
<path d="M139.41 3.13354H145.032" stroke="#FFF083" stroke-width="3" stroke-linecap="round" stroke-linejoin="round"/>
<path d="M139.788 4.56627L144.654 1.70239" stroke="#FFF083" stroke-width="3" stroke-linecap="round" stroke-linejoin="round"/>
<path d="M140.816 5.61449L143.626 0.652588" stroke="#FFF083" stroke-width="3" stroke-linecap="round" stroke-linejoin="round"/>
<path d="M149.939 18.0157C149.939 18.0157 153.084 11.6192 150.098 9.05731C150.098 9.05731 149.394 8.42988 150.399 8.49101C151.405 8.55393 154.056 11.0744 149.939 18.0157Z" fill="#30C13E"/>
<path d="M152.514 16.252C152.514 16.252 155.726 6.71113 155.982 5.93988C156.765 3.57938 158.578 3.16768 158.096 4.10972C157.615 5.05177 152.514 16.2502 152.514 16.2502V16.252Z" fill="#E46EF9"/>
<path d="M153.521 16.1818C153.521 16.1818 155.742 12.7696 157.652 12.9962C159.562 13.2227 155.428 14.8245 155.428 14.8245L153.521 16.1818Z" fill="#FFF764"/>
<path d="M5.63803 52.3337C5.698 52.3337 5.75267 52.2923 5.76679 52.2294C5.78442 52.1575 5.74033 52.0838 5.66977 52.0676L5.16532 51.9436C5.09477 51.9274 5.02245 51.9705 5.00657 52.0425C4.98894 52.1144 5.03303 52.1881 5.10359 52.2043L5.60804 52.3283C5.61862 52.3301 5.62921 52.3319 5.63979 52.3319L5.63803 52.3337Z" fill="#37B34A"/>
<path d="M5.4864 52.8891C5.54813 52.8891 5.60281 52.846 5.61516 52.783C5.63103 52.7093 5.58517 52.6392 5.51286 52.623L5.01193 52.5152C4.94138 52.499 4.87082 52.5457 4.85495 52.6194C4.83907 52.6931 4.88493 52.7633 4.95725 52.7794L5.45818 52.8873C5.467 52.8891 5.47582 52.8909 5.4864 52.8909V52.8891Z" fill="#37B34A"/>
<path d="M3.5074 48.918C4.57276 44.5709 10.7391 41.4032 10.7391 41.4032C9.92422 40.9394 9.44975 40.5367 9.44975 40.5367C9.48326 40.5169 9.10756 40.2616 9.14108 40.2401C7.40547 38.525 6.72816 36.3406 6.72816 33.7374C6.72816 32.301 7.06152 30.9455 7.64888 29.741C6.93453 27.891 7.00332 25.9476 7.00332 25.9476C8.30679 26.0609 9.44446 26.3683 10.18 26.611C11.6634 25.4496 13.5207 24.7593 15.535 24.7593C17.5034 24.7593 19.3201 25.4173 20.7859 26.5283C21.6096 26.2011 22.8884 25.8433 24.3435 25.9746C24.3435 25.9746 24.25 28.5832 23.4581 29.8129C24.0243 30.9994 24.3435 32.3298 24.3435 33.7374C24.3435 37.1856 22.7526 40.3587 19.6359 41.9048C19.6359 41.9048 19.4242 42.0325 19.0344 42.1889C19.0609 42.2482 19.0856 42.3075 19.1085 42.3686C21.024 42.0055 23.9026 41.2702 25.0614 39.983C26.8658 37.9766 27.0298 37.058 27.0298 37.058C27.0298 37.058 27.85 35.9721 27.9312 37.2252C28.0123 38.4782 27.439 38.7299 27.439 38.7299C27.439 38.7299 29.7356 40.1502 27.6842 40.9861C27.6842 40.9861 26.6859 44.0334 19.456 45.3278V49.4969C19.456 50.4803 19.1667 51.3972 18.6711 52.1666C18.9339 55.5968 18.4788 59.3128 18.4788 59.3128L18.8492 59.507C20.4366 59.818 20.5354 60.5281 20.3291 61.0783C20.1139 61.65 19.5583 62.0077 18.9568 62.0239C18.2548 62.0455 17.5387 61.7812 16.9884 61.5079C16.438 61.2347 15.8401 60.3448 15.9442 59.7299C16.3022 57.6283 16.3499 55.6327 16.2969 54.0848C15.7872 54.2754 15.2369 54.3779 14.6654 54.3779C13.9863 54.3779 13.339 54.2305 12.7534 53.968C12.0514 56.5298 10.5327 58.7034 10.5327 58.7034L10.7744 59.0503C12.0426 60.0697 11.8115 60.7457 11.3794 61.1394C10.9314 61.5457 10.2752 61.6032 9.73372 61.3371C9.10227 61.0279 8.58371 60.458 8.2186 59.9564C7.85348 59.4548 7.84995 58.7627 8.22036 58.2665C9.76371 56.1955 10.3281 53.7235 10.5274 51.9455C10.5222 51.9365 10.5186 51.9275 10.5133 51.9185C9.42329 52.6322 8.29444 52.9954 7.14619 52.9954C6.99626 52.9954 6.84634 52.9864 6.69641 52.9756C6.60293 53.2165 6.3507 53.3639 6.09142 53.31L5.72278 53.2345C5.57814 53.2039 5.48466 53.0601 5.51464 52.9127L5.68573 52.0569C5.71396 51.9113 5.8533 51.8178 5.99617 51.8466L6.41243 51.9329C6.65231 51.9832 6.81459 52.2026 6.804 52.4453C7.98401 52.5244 9.14813 52.1864 10.2735 51.4385C10.0177 50.8416 9.87307 50.1854 9.87307 49.4951V45.6101C7.51483 47.1741 6.45829 48.8838 6.07025 49.6587C5.87976 50.0398 5.63106 50.4533 5.2289 50.5756C3.25871 51.1706 3.50388 48.9144 3.50388 48.9144L3.5074 48.918Z" fill="white" stroke="#A7A9AC" stroke-linejoin="round"/>
<g opacity="0.3">
<path d="M23.5956 26.771L22.816 28.851L21.6289 27.2618C21.6289 27.2618 22.913 26.735 23.5956 26.7692V26.771Z" fill="#37B34A"/>
</g>
<g opacity="0.3">
<path d="M9.49037 27.3372L7.78298 26.7673C7.78298 26.7673 7.74594 28.2829 8.30331 28.8492L9.49037 27.3354V27.3372Z" fill="#37B34A"/>
</g>
<path d="M17.0023 37.9047C18.1206 37.9047 19.1736 37.4786 19.992 36.6894C20.8686 35.8426 21.3519 34.6974 21.3519 33.4677C21.3519 32.1176 20.7592 30.8573 19.7274 30.0106C19.4611 29.793 19.073 29.8362 18.8596 30.1058C18.6462 30.3773 18.6885 30.7728 18.9531 30.9904C19.6921 31.598 20.1172 32.5005 20.1172 33.4677C20.1172 34.3504 19.7715 35.1702 19.1418 35.7761C18.5139 36.3819 17.6919 36.6894 16.8224 36.6408C15.2102 36.5509 13.9191 35.19 13.8821 33.5432C13.8538 32.3153 14.5329 31.1683 15.6106 30.62C15.9158 30.4654 16.0392 30.0879 15.8875 29.7769C15.7359 29.4658 15.3655 29.3382 15.0603 29.4946C13.5558 30.2587 12.6086 31.8605 12.6474 33.5738C12.7003 35.8732 14.5047 37.7734 16.7553 37.8993C16.8382 37.9047 16.9211 37.9065 17.0023 37.9065V37.9047Z" fill="#37B34A"/>
<path d="M17.3269 31.9126C17.6514 31.9126 17.923 31.6555 17.9424 31.3211L18.0765 29.0289C18.0959 28.6819 17.8366 28.3835 17.4962 28.3637C17.1558 28.3404 16.863 28.6082 16.8436 28.9552L16.7095 31.2474C16.6901 31.5944 16.9494 31.8928 17.2898 31.9126C17.3022 31.9126 17.3145 31.9126 17.3269 31.9126Z" fill="#37B34A"/>
<path d="M15.8065 40.3929C15.041 39.9201 15.1803 38.6508 15.1874 38.5969C15.1927 38.5501 15.2209 38.5106 15.2632 38.4908C15.3055 38.471 15.3532 38.4746 15.392 38.5016C15.7253 38.7281 16.893 38.6724 17.3145 38.631C17.3586 38.6275 17.4045 38.6472 17.4327 38.6832C17.4609 38.7209 17.468 38.7695 17.4521 38.8126C17.1082 39.7655 16.7166 40.3138 16.2898 40.4468C16.2192 40.4684 16.1539 40.4774 16.0975 40.4774C15.9247 40.4774 15.8171 40.4019 15.8082 40.3965L15.8065 40.3929ZM15.4396 38.8162C15.4325 39.1596 15.4802 39.8751 15.9511 40.1664C15.9546 40.17 16.0569 40.2365 16.2192 40.1825C16.3991 40.1232 16.7484 39.8769 17.1276 38.9151C16.7307 38.9421 15.9052 38.9744 15.4396 38.8162Z" fill="#37B34A"/>
<path d="M16.1539 45.876C16.1539 45.876 16.616 44.6337 15.1644 44.0962C15.1644 44.0962 14.7357 45.6081 16.1539 45.876Z" fill="#37B34A"/>
<path opacity="0.8" d="M12.3529 38.9259C13.1779 38.9259 13.8468 38.6047 13.8468 38.2085C13.8468 37.8124 13.1779 37.4912 12.3529 37.4912C11.5278 37.4912 10.8589 37.8124 10.8589 38.2085C10.8589 38.6047 11.5278 38.9259 12.3529 38.9259Z" fill="#FFDCFD"/>
<path opacity="0.8" d="M20.4383 39.1954C21.2634 39.1954 21.9323 38.8742 21.9323 38.4781C21.9323 38.0819 21.2634 37.7607 20.4383 37.7607C19.6132 37.7607 18.9443 38.0819 18.9443 38.4781C18.9443 38.8742 19.6132 39.1954 20.4383 39.1954Z" fill="#FFDCFD"/>
<path d="M148.942 53.7269C148.942 53.7269 147.771 46.7766 154.281 44.2561C160.791 41.7356 160.793 43.1217 160.793 43.1217C160.793 43.1217 160.698 54.0541 152.755 53.619C144.813 53.184 148.942 53.7269 148.942 53.7269Z" fill="white" stroke="#A7A9AC" stroke-miterlimit="10"/>
<mask id="mask0_497_1001" style="mask-type:luminance" maskUnits="userSpaceOnUse" x="147" y="42" width="14" height="12">
<path d="M148.932 53.7269C148.932 53.7269 147.771 46.8485 154.221 44.3532C160.672 41.8579 160.675 43.2314 160.675 43.2314C160.675 43.2314 160.58 54.0505 152.71 53.619C144.84 53.1894 148.932 53.7251 148.932 53.7251V53.7269Z" fill="white"/>
</mask>
<g mask="url(#mask0_497_1001)">
<g opacity="0.3">
<path d="M159.012 48.8677C161.317 48.8677 163.185 46.9657 163.185 44.6195C163.185 42.2733 161.317 40.3713 159.012 40.3713C156.707 40.3713 154.839 42.2733 154.839 44.6195C154.839 46.9657 156.707 48.8677 159.012 48.8677Z" fill="#00D0C1"/>
</g>
<g opacity="0.5">
<path d="M159.827 47.7727C162.132 47.7727 164 45.8708 164 43.5245C164 41.1783 162.132 39.2764 159.827 39.2764C157.522 39.2764 155.654 41.1783 155.654 43.5245C155.654 45.8708 157.522 47.7727 159.827 47.7727Z" fill="#00D0C1"/>
</g>
</g>
<path d="M158.955 22.8626C158.911 20.8958 158.057 20.9875 158.057 20.9875C155.802 21.0289 151.526 23.4631 150.997 24.9535C149.801 24.3278 148.445 23.9737 147.007 23.9737C145.473 23.9737 144.03 24.3782 142.776 25.0847C142.679 23.6339 138.045 20.921 135.664 20.8779C135.664 20.8779 134.812 20.7862 134.766 22.753C134.766 22.753 135.163 31.0659 138.886 29.5612C138.477 30.5931 138.25 31.7203 138.25 32.8997C138.25 36.711 140.594 39.9632 143.894 41.2432C143.714 41.5453 143.566 41.8689 143.453 42.2087L143.444 42.2033C142.333 45.7755 140.266 46.6888 139.089 46.9099C138.842 46.6924 138.528 46.5611 138.186 46.5611C137.394 46.5611 136.752 47.2605 136.752 48.1252C136.752 48.9899 137.394 49.6893 138.186 49.6893C138.507 49.6893 138.802 49.5724 139.042 49.3783C140.894 49.1949 142.158 48.4883 143.024 47.6074L142.97 48.8605C142.926 49.8565 143.183 50.7967 143.656 51.5949C143.252 54.8184 143.418 58.1299 143.418 58.1299L143.035 58.2971C141.43 58.4895 141.28 59.1888 141.448 59.7533C141.62 60.3394 142.15 60.7367 142.747 60.7996C143.446 60.8733 144.18 60.6648 144.748 60.4329C145.316 60.201 145.977 59.3596 145.917 58.7394C145.734 56.8427 145.79 55.0485 145.921 53.5887C146.423 53.8026 146.97 53.9321 147.545 53.959C148.198 53.9878 148.827 53.8817 149.406 53.6642C149.995 56.1973 150.768 58.3079 150.768 58.3079L150.452 58.5847C148.979 59.2607 149.043 59.9744 149.369 60.4616C149.708 60.9668 150.33 61.1844 150.918 61.0603C151.605 60.9165 152.244 60.4904 152.715 60.0949C153.188 59.6994 153.57 58.6926 153.329 58.1209C152.374 55.8485 151.856 53.6138 151.579 52.0192C152.145 51.2569 152.5 50.3203 152.544 49.2992L152.699 45.7162C153.574 47.4007 153.748 48.2367 153.865 48.9432C153.75 49.1571 153.685 49.4016 153.685 49.6605C153.685 50.4893 154.345 51.1617 155.158 51.1617C155.971 51.1617 156.631 50.4893 156.631 49.6605C156.631 49.1949 156.422 48.7778 156.094 48.5027C155.65 44.6249 152.073 41.0257 151.563 40.5295C154.084 38.9618 155.765 36.1339 155.765 32.9051C155.765 31.8138 155.57 30.7675 155.219 29.8003C158.585 30.5985 158.954 22.868 158.954 22.868L158.955 22.8626Z" fill="white" stroke="#A7A9AC" stroke-linecap="round" stroke-linejoin="round"/>
<path d="M146.595 37.3096C145.476 37.3096 144.423 36.8836 143.605 36.0943C142.727 35.2476 142.245 34.1024 142.245 32.8727C142.245 31.5226 142.838 30.2623 143.87 29.4155C144.136 29.198 144.524 29.2412 144.737 29.5108C144.951 29.7823 144.909 30.1778 144.644 30.3953C143.903 31.003 143.48 31.9055 143.48 32.8727C143.48 33.7554 143.826 34.5752 144.455 35.1811C145.083 35.7869 145.91 36.0943 146.775 36.0458C148.387 35.9559 149.678 34.595 149.715 32.9482C149.743 31.7203 149.064 30.5733 147.986 30.025C147.681 29.8704 147.558 29.4928 147.709 29.1818C147.861 28.8708 148.232 28.745 148.537 28.8996C150.041 29.6636 150.988 31.2655 150.95 32.9788C150.897 35.2781 149.092 37.1784 146.842 37.3042C146.759 37.3096 146.676 37.3114 146.595 37.3114V37.3096Z" fill="#00D0C1"/>
<path d="M146.268 31.3176C145.944 31.3176 145.672 31.0606 145.653 30.7262L145.519 28.434C145.499 28.087 145.758 27.7886 146.099 27.7688C146.441 27.7472 146.732 28.0133 146.752 28.3603L146.886 30.6525C146.905 30.9994 146.646 31.2979 146.305 31.3176C146.293 31.3176 146.281 31.3176 146.268 31.3176Z" fill="#00D0C1"/>
<path d="M147.071 39.812C146.923 39.812 146.757 39.7617 146.575 39.6592C146.568 39.6556 146.561 39.6502 146.556 39.6448C146.531 39.6251 145.968 39.1487 145.753 38.3738C145.489 38.3073 145.275 38.1311 145.16 37.9873C145.115 37.9297 145.123 37.8453 145.18 37.7985C145.236 37.7518 145.319 37.7608 145.365 37.8183C145.414 37.8794 145.866 38.4026 146.43 37.9531C146.476 37.9172 146.538 37.9154 146.586 37.9477C146.61 37.9657 147.21 38.3666 147.61 37.8938C147.646 37.8524 147.7 37.8363 147.752 37.8542C147.803 37.8704 147.838 37.9172 147.842 37.9711C147.852 38.1113 147.935 39.359 147.39 39.7168C147.293 39.7797 147.187 39.812 147.069 39.812H147.071ZM146.714 39.4309C146.94 39.555 147.12 39.5747 147.247 39.492C147.526 39.3087 147.588 38.6848 147.588 38.2659C147.214 38.4979 146.774 38.3702 146.517 38.2228C146.351 38.3361 146.189 38.39 146.035 38.4008C146.231 38.9869 146.647 39.3734 146.713 39.4309H146.714Z" fill="#00D0C1"/>
<path d="M147.314 38.7694C147.268 38.7694 147.226 38.746 147.201 38.7047L146.997 38.3667C146.958 38.3038 146.977 38.2193 147.041 38.1815C147.104 38.142 147.186 38.1617 147.223 38.2264L147.268 38.3038L147.288 38.2336C147.307 38.1617 147.38 38.1204 147.452 38.142C147.522 38.1617 147.563 38.2372 147.542 38.3091L147.439 38.6723C147.425 38.7244 147.383 38.7622 147.33 38.7694C147.325 38.7694 147.318 38.7694 147.312 38.7694H147.314Z" fill="#00D0C1"/>
<g opacity="0.3">
<path d="M136.567 23.0405C136.567 23.0405 136.632 29.2338 140.015 27.9286C140.015 27.9286 142.248 26.4886 141.165 25.3848C141.165 25.3848 136.863 21.3002 136.567 23.0422V23.0405Z" fill="#00D0C1"/>
</g>
<g opacity="0.3">
<path d="M157.063 23.1412C157.063 23.1412 152.071 24.2127 152.858 25.8522C153.645 27.4918 154.5 28.1624 155.419 28.0617C156.338 27.961 157.948 23.0405 157.061 23.1412H157.063Z" fill="#00D0C1"/>
</g>
<path d="M147.09 46.2015L148.452 44.7506C148.452 44.7506 148.734 43.9686 148.108 43.7942L147.154 44.8297L145.981 43.7295C145.981 43.7295 145.355 44.2562 145.794 44.8459C146.233 45.4356 147.092 46.2015 147.092 46.2015H147.09Z" fill="#00D0C1"/>
<path d="M146.543 47.1111C146.776 47.1111 146.965 46.9042 146.965 46.649C146.965 46.3939 146.776 46.187 146.543 46.187C146.311 46.187 146.122 46.3939 146.122 46.649C146.122 46.9042 146.311 47.1111 146.543 47.1111Z" fill="#00D0C1"/>
<path d="M147.662 47.1111C147.894 47.1111 148.083 46.9042 148.083 46.649C148.083 46.3939 147.894 46.187 147.662 46.187C147.429 46.187 147.24 46.3939 147.24 46.649C147.24 46.9042 147.429 47.1111 147.662 47.1111Z" fill="#00D0C1"/>
<path d="M147.344 39.5658C147.344 39.5658 147.163 40.675 147.48 40.8602C147.798 41.0454 147.616 39.2422 147.616 39.2422L147.344 39.5658Z" fill="#69DFFF"/>
<path d="M138.835 42.257L138.728 41.9155C138.624 41.5865 138.322 41.3779 137.999 41.3725C138.126 41.1927 138.172 40.9572 138.101 40.7325C138.05 40.5689 137.943 40.4395 137.81 40.3532L137.89 40.328C138.038 40.2795 138.121 40.1141 138.073 39.9631L137.966 39.6215C137.865 39.3033 137.581 39.0965 137.271 39.0785C137.373 38.906 137.408 38.692 137.343 38.4853C137.223 38.1095 136.824 37.901 136.456 38.0214L134.053 38.8125C133.685 38.9347 133.48 39.341 133.598 39.7168C133.657 39.9001 133.782 40.0422 133.937 40.1267C133.815 40.204 133.754 40.3568 133.8 40.5024L133.898 40.8116C133.985 41.0813 134.202 41.2701 134.456 41.333C134.334 41.511 134.29 41.7429 134.36 41.964C134.424 42.1672 134.572 42.3182 134.75 42.3991C134.597 42.462 134.514 42.6364 134.565 42.7982L134.664 43.1074C134.747 43.3681 134.951 43.5532 135.191 43.6234C135.052 43.8049 134.999 44.053 135.073 44.2885C135.136 44.4899 135.283 44.6409 135.459 44.7218C135.293 44.7775 135.202 44.9609 135.255 45.1299L135.353 45.4391C135.484 45.8508 135.923 46.0809 136.327 45.9461L139.347 44.9519C139.495 44.9034 139.578 44.738 139.53 44.587L139.423 44.2454C139.32 43.9218 139.028 43.715 138.712 43.7025C138.842 43.5227 138.89 43.2836 138.818 43.0553C138.765 42.8863 138.652 42.755 138.514 42.6669L138.655 42.6202C138.803 42.5717 138.886 42.4063 138.839 42.2552L138.835 42.257Z" fill="#E08420" stroke="#A0A0A0" stroke-width="2" stroke-miterlimit="10"/>
<path d="M136.454 38.031L134.052 38.8217C133.681 38.9438 133.478 39.3491 133.597 39.727C133.717 40.105 134.115 40.3124 134.486 40.1903L136.888 39.3996C137.258 39.2775 137.462 38.8722 137.342 38.4943C137.222 38.1163 136.825 37.9089 136.454 38.031Z" fill="#AD4512"/>
<path d="M134.004 40.1068L136.992 39.1233C137.398 38.9896 137.833 39.2166 137.965 39.6306L138.073 39.9727C138.121 40.125 138.039 40.2879 137.89 40.3371L134.871 41.3312C134.464 41.4649 134.029 41.2379 133.898 40.8239L133.8 40.5142C133.746 40.3432 133.838 40.1598 134.005 40.1046L134.004 40.1068Z" fill="white"/>
<path d="M137.213 40.2783L134.811 41.069C134.44 41.1911 134.237 41.5964 134.356 41.9743C134.476 42.3523 134.874 42.5597 135.245 42.4376L137.647 41.6469C138.017 41.5248 138.221 41.1195 138.101 40.7416C137.981 40.3636 137.584 40.1562 137.213 40.2783Z" fill="#AD4512"/>
<path d="M134.765 42.3998L137.752 41.4162C138.159 41.2825 138.594 41.5095 138.725 41.9235L138.833 42.2657C138.882 42.418 138.8 42.5809 138.651 42.6301L135.631 43.6242C135.225 43.7579 134.79 43.5309 134.658 43.1169L134.56 42.8072C134.506 42.6361 134.598 42.4528 134.766 42.3975L134.765 42.3998Z" fill="white"/>
<path d="M137.927 42.6032L135.525 43.394C135.154 43.516 134.951 43.9214 135.071 44.2993C135.19 44.6772 135.588 44.8846 135.959 44.7626L138.361 43.9719C138.731 43.8498 138.935 43.4445 138.815 43.0665C138.695 42.6886 138.298 42.4812 137.927 42.6032Z" fill="#AD4512"/>
<path d="M135.457 44.7328L138.445 43.7493C138.851 43.6155 139.287 43.8425 139.418 44.2565L139.526 44.5987C139.574 44.751 139.493 44.9139 139.343 44.9631L136.324 45.9572C135.917 46.0909 135.482 45.8639 135.351 45.4499L135.253 45.1402C135.199 44.9691 135.291 44.7858 135.459 44.7306L135.457 44.7328Z" fill="white"/>
<path d="M137.297 45.137L137.295 45.1375C137.212 45.165 137.166 45.2562 137.193 45.3412L138.039 48.0117C138.066 48.0968 138.156 48.1434 138.239 48.116L138.241 48.1154C138.324 48.088 138.37 47.9968 138.343 47.9117L137.497 45.2412C137.47 45.1562 137.38 45.1095 137.297 45.137Z" fill="#7C7462" stroke="#A0A0A0" stroke-width="0.5" stroke-miterlimit="10"/>
<path d="M136.29 38.4907C136.29 38.4907 134.059 39.5173 135.029 40.3191C136.001 41.1209 136.927 41.1802 137.08 41.813C137.234 42.4459 135.796 43.0391 136.013 43.5767C136.23 44.1142 137.991 44.5331 137.991 44.5331" stroke="#F9DD50" stroke-width="2" stroke-linecap="round" stroke-linejoin="round"/>
<path d="M134.204 39.5065C134.204 39.5065 136.89 39.0966 136.929 40.2041C136.968 41.3115 135.461 41.7592 135.627 42.5089C135.793 43.2585 137.506 42.187 137.994 43.0859C138.483 43.9848 136.001 44.7022 136.001 44.7022" stroke="#CC2929" stroke-width="2" stroke-linecap="round" stroke-linejoin="round"/>
<path d="M132.897 46.4047C130.025 44.3174 127.842 41.9048 126.778 39.7618C126.413 39.0265 126.268 38.1924 126.401 37.378C126.401 37.3744 126.498 36.1824 126.498 36.1788C126.713 34.87 127.201 33.6134 127.939 32.5024C128.9 31.0551 129.461 29.3095 129.461 27.429C129.461 23.2491 126.688 19.7326 122.924 18.6989C115.737 16.7249 109.821 24.5849 113.22 31.359C113.854 32.6228 114.668 33.8075 115.505 34.9204C116.23 35.8822 116.805 36.56 116.807 38.7802C116.807 38.8054 116.807 38.8252 116.807 38.8486L116.862 40.0998C109.205 41.6837 109.35 36.8063 109.484 35.2224C109.593 33.937 110.195 33.3311 110.464 32.5581C110.734 31.785 109.923 31.1055 109.381 31.1055C108.84 31.1055 108.062 32.0044 108.062 32.0044C108.062 32.0044 105.794 34.6166 107.484 39.1865C109.202 43.8338 116.082 42.9637 116.978 42.8307L117.035 44.1287L117.086 45.1804C117.151 46.5413 117.523 47.8303 118.444 48.6807C117.633 52.483 118.356 57.7541 118.356 57.7541L117.977 57.9393C116.352 58.2072 116.244 58.9317 116.442 59.498C116.647 60.0769 117.188 60.4472 117.79 60.4832C118.495 60.5263 119.227 60.2836 119.79 60.0247C120.352 59.7659 120.984 58.8849 120.897 58.2593C120.358 54.3599 120.845 50.8416 121.017 49.7953C121.383 49.8654 121.762 49.896 122.148 49.8762C122.619 49.8528 123.071 49.7594 123.496 49.6065C123.571 50.1279 123.64 50.4929 123.64 50.4929C123.64 50.4929 124.631 54.5738 124.18 59.2589C124.12 59.8881 124.787 60.7403 125.36 60.974C125.933 61.2095 126.672 61.4198 127.376 61.3461C127.976 61.2832 128.503 60.8913 128.681 60.3016C128.856 59.7281 128.718 59.009 127.085 58.8112L126.699 58.6422C126.699 58.6422 127.526 51.825 126.051 48.1719C126.836 47.2424 126.801 46.011 126.738 44.695L126.702 43.9525C128.697 47.5085 131.408 48.8191 131.408 48.8191C132.835 49.8349 133.952 48.9468 133.952 48.9468C135.006 47.8681 132.897 46.4083 132.897 46.4083V46.4047Z" fill="white" stroke="#A7A9AC" stroke-linecap="round" stroke-linejoin="round"/>
<path d="M120.237 31.1485C119.109 31.1485 118.047 30.717 117.223 29.9188C116.338 29.0613 115.851 27.9035 115.851 26.6558C115.851 25.2895 116.449 24.0131 117.489 23.1555C117.758 22.9344 118.149 22.9775 118.364 23.2526C118.579 23.5259 118.537 23.9286 118.269 24.1479C117.523 24.7627 117.094 25.676 117.094 26.6558C117.094 27.5493 117.444 28.3781 118.077 28.9929C118.71 29.606 119.543 29.917 120.416 29.8685C122.04 29.7768 123.344 28.3997 123.381 26.7331C123.409 25.4908 122.724 24.3277 121.638 23.774C121.329 23.6176 121.204 23.2346 121.358 22.92C121.511 22.6054 121.885 22.4778 122.192 22.6342C123.709 23.4072 124.665 25.0288 124.624 26.7637C124.571 29.0918 122.751 31.0155 120.481 31.1413C120.398 31.1467 120.315 31.1485 120.232 31.1485H120.237Z" fill="#FAAF40"/>
<path d="M119.91 25.0811C119.583 25.0811 119.308 24.8204 119.289 24.4824L119.155 22.1632C119.134 21.8127 119.396 21.5106 119.739 21.4891C120.081 21.4693 120.377 21.7372 120.396 22.0877L120.531 24.4069C120.552 24.7574 120.289 25.0595 119.947 25.0811C119.934 25.0811 119.922 25.0811 119.91 25.0811Z" fill="#FAAF40"/>
<path d="M121.195 33.4299C121.118 33.4299 121.038 33.4263 120.957 33.4209C120.88 33.4119 119.183 33.1998 118.677 31.9575C118.659 31.9125 118.664 31.8622 118.693 31.8244C118.721 31.7867 118.767 31.7651 118.812 31.7687C118.816 31.7687 119.167 31.8011 119.671 31.8191C120.552 31.8514 121.785 31.8442 122.67 31.6231C122.707 31.6141 122.748 31.6231 122.779 31.6447C122.811 31.668 122.83 31.704 122.834 31.7435C122.836 31.7741 122.892 32.4896 122.414 32.984C122.128 33.2807 121.719 33.4281 121.195 33.4281V33.4299ZM119.028 32.0582C119.576 32.9714 120.968 33.1458 120.984 33.1476C121.536 33.1926 121.954 33.0721 122.224 32.7935C122.494 32.5166 122.555 32.1373 122.568 31.9269C121.672 32.1175 120.506 32.1229 119.663 32.0923C119.402 32.0833 119.181 32.0689 119.028 32.06V32.0582Z" fill="#FAAF40"/>
<path d="M119.871 33.0019C119.811 33.0019 119.756 32.9606 119.742 32.8977L119.557 32.0994C119.539 32.0257 119.583 31.952 119.656 31.9358C119.728 31.9179 119.799 31.9628 119.816 32.0365L120.001 32.8347C120.019 32.9084 119.975 32.9822 119.903 32.9983C119.892 33.0001 119.881 33.0019 119.871 33.0019Z" fill="#FAAF40"/>
<path d="M120.633 33.286C120.571 33.286 120.515 33.2411 120.502 33.1764L120.28 32.0168C120.266 31.9431 120.314 31.8712 120.386 31.8568C120.458 31.8442 120.529 31.8909 120.543 31.9646L120.765 33.1242C120.779 33.1979 120.732 33.2698 120.659 33.2842C120.65 33.2842 120.642 33.286 120.633 33.286Z" fill="#FAAF40"/>
<path d="M121.356 33.3239C121.292 33.3239 121.236 33.2772 121.225 33.2106L121.04 32.0888C121.028 32.0151 121.077 31.945 121.15 31.9306C121.22 31.9162 121.291 31.9684 121.303 32.0421L121.488 33.1639C121.501 33.2376 121.451 33.3077 121.379 33.3221C121.372 33.3221 121.365 33.3239 121.356 33.3239Z" fill="#FAAF40"/>
<path d="M122.098 33.153C122.031 33.153 121.973 33.1008 121.966 33.0307L121.855 31.9484C121.848 31.8729 121.901 31.8064 121.973 31.7992C122.045 31.792 122.112 31.846 122.119 31.9215L122.231 33.0037C122.238 33.0793 122.185 33.1458 122.112 33.153C122.107 33.153 122.104 33.153 122.098 33.153Z" fill="#FAAF40"/>
<path d="M127.762 47.4329C127.762 47.4329 125.681 43.1811 126.219 39.733H126.277C126.6 39.7186 126.854 39.4399 126.843 39.1091L126.822 38.5087C126.81 38.1779 126.536 37.919 126.213 37.9298L116.913 38.2714C116.59 38.2839 116.336 38.5626 116.347 38.8934L116.368 39.4938C116.38 39.8246 116.653 40.0835 116.976 40.0727L124.695 39.7887C124.714 41.3905 124.917 45.574 126.459 47.3088L127.76 47.4311L127.762 47.4329Z" fill="#FAAF40"/>
<path d="M120.426 41.5415C120.387 41.5415 120.352 41.5253 120.326 41.4947C120.298 41.4624 120.287 41.4174 120.296 41.3761L120.714 39.3644C120.726 39.3032 120.777 39.2601 120.837 39.2565L121.449 39.2241C121.506 39.2205 121.559 39.2547 121.58 39.3086L122.321 41.1873C122.337 41.2269 122.333 41.2718 122.31 41.3096C122.289 41.3473 122.25 41.3707 122.208 41.3743L120.435 41.5397C120.435 41.5397 120.426 41.5397 120.423 41.5397L120.426 41.5415ZM120.954 39.5244L120.594 41.252L122.007 41.1208L121.368 39.5028L120.954 39.5244Z" fill="#FAAF40"/>
<path d="M121.201 42.1151C121.134 42.1151 121.077 42.0648 121.068 41.9947L121 41.4158C120.991 41.3403 121.042 41.2738 121.116 41.2648C121.188 41.254 121.255 41.3097 121.264 41.3834L121.333 41.9623C121.342 42.0378 121.291 42.1043 121.216 42.1133C121.211 42.1133 121.206 42.1133 121.201 42.1133V42.1151Z" fill="#FAAF40"/>
<path d="M121.716 42.045C121.65 42.045 121.594 41.9965 121.583 41.9282L121.497 41.3151C121.486 41.2396 121.538 41.1713 121.61 41.1605C121.682 41.1479 121.751 41.2019 121.762 41.2756L121.848 41.8886C121.859 41.9641 121.807 42.0324 121.735 42.0432C121.728 42.0432 121.723 42.0432 121.716 42.0432V42.045Z" fill="#FAAF40"/>
<path d="M113.817 26.5326L110.774 26.1885C110.363 26.1421 109.993 26.4437 109.948 26.8621L109.204 33.6967C109.158 34.1152 109.454 34.492 109.865 34.5384L112.908 34.8825C113.319 34.9289 113.688 34.6273 113.734 34.2089L114.478 27.3743C114.523 26.9559 114.227 26.5791 113.817 26.5326Z" fill="#2D2D2D" stroke="#A0A0A0" stroke-width="0.5" stroke-miterlimit="10"/>
<path d="M110.722 27.3265C110.92 27.3265 111.081 27.1614 111.081 26.9579C111.081 26.7544 110.92 26.5894 110.722 26.5894C110.523 26.5894 110.362 26.7544 110.362 26.9579C110.362 27.1614 110.523 27.3265 110.722 27.3265Z" fill="#898989" stroke="#A0A0A0" stroke-width="0.5" stroke-miterlimit="10"/>
<path d="M111.263 28.2344C111.462 28.2344 111.623 28.0694 111.623 27.8659C111.623 27.6623 111.462 27.4973 111.263 27.4973C111.065 27.4973 110.904 27.6623 110.904 27.8659C110.904 28.0694 111.065 28.2344 111.263 28.2344Z" fill="#B7B7B7" stroke="#A0A0A0" stroke-width="0.5" stroke-miterlimit="10"/>
<mask id="mask1_497_1001" style="mask-type:luminance" maskUnits="userSpaceOnUse" x="109" y="26" width="6" height="9">
<path d="M112.927 34.8269L109.965 34.4889C109.561 34.4422 109.268 34.0646 109.312 33.6475L110.032 26.9274C110.076 26.5103 110.443 26.2083 110.845 26.255L113.807 26.593C114.211 26.6397 114.503 27.0173 114.459 27.4344L113.74 34.1545C113.696 34.5716 113.329 34.8736 112.927 34.8269Z" fill="white"/>
</mask>
<g mask="url(#mask1_497_1001)">
<path d="M115.53 26.0698L114.202 25.9224L113.366 33.9351C113.339 34.1904 113.117 34.3756 112.87 34.3504L109.06 33.9459L108.877 35.7904L114.203 36.3549L114.267 35.7185C114.274 35.6466 114.338 35.5927 114.408 35.6017C114.479 35.6089 114.54 35.5567 114.549 35.4848L115.532 26.0698H115.53Z" fill="black"/>
</g>
<path d="M110.868 30.8771C110.868 30.8771 111.082 29.8128 112.309 30.0879C112.309 30.0879 111.958 31.323 110.868 30.8771Z" fill="#606060"/>
<path d="M112.392 16.7986C112.392 17.9995 112.069 19.2687 110.969 19.2921C112.133 19.5348 112.392 20.5614 112.392 21.7623C112.392 20.5614 112.392 19.6229 113.6 19.4234C112.35 19.0476 112.392 17.9995 112.392 16.7986Z" fill="#FFD18F"/>
<path d="M129.355 32.7181C129.355 33.5487 129.131 34.426 128.371 34.4422C129.175 34.6094 129.355 35.3195 129.355 36.1501C129.355 35.3195 129.355 34.6705 130.189 34.5321C129.325 34.2732 129.355 33.5469 129.355 32.7163V32.7181Z" fill="#FFD18F"/>
<path d="M116.546 40.1626C109.088 41.2556 109.348 36.8025 109.482 35.2205C109.591 33.935 110.193 33.3292 110.462 32.5561C110.732 31.7831 109.921 31.1035 109.379 31.1035C108.838 31.1035 108.06 32.0024 108.06 32.0024C108.06 32.0024 105.792 34.6146 107.482 39.1846C109.2 43.8319 116.08 42.9617 116.976 42.8287L117.033 44.1267" fill="white"/>
<path d="M116.546 40.1626C109.088 41.2556 109.348 36.8025 109.482 35.2205C109.591 33.935 110.193 33.3292 110.462 32.5561C110.732 31.7831 109.921 31.1035 109.379 31.1035C108.838 31.1035 108.06 32.0024 108.06 32.0024C108.06 32.0024 105.792 34.6146 107.482 39.1846C109.2 43.8319 116.08 42.9617 116.976 42.8287L117.033 44.1267" stroke="#A7A9AC" stroke-linecap="round" stroke-linejoin="round"/>
<path opacity="0.8" d="M71.748 37.2358C72.6277 37.2358 73.3407 36.8575 73.3407 36.3909C73.3407 35.9242 72.6277 35.5459 71.748 35.5459C70.8684 35.5459 70.1553 35.9242 70.1553 36.3909C70.1553 36.8575 70.8684 37.2358 71.748 37.2358Z" fill="#FFDCFD"/>
<path opacity="0.8" d="M62.0947 37.1244C62.988 37.1244 63.7122 36.771 63.7122 36.3351C63.7122 35.8992 62.988 35.5459 62.0947 35.5459C61.2014 35.5459 60.4773 35.8992 60.4773 36.3351C60.4773 36.771 61.2014 37.1244 62.0947 37.1244Z" fill="#FFDCFD"/>
</g>
<defs>
<clipPath id="clip0_497_1001">
<rect width="164" height="63" fill="white"/>
</clipPath>
</defs>
</svg>
