<svg width="151" height="33" viewBox="0 0 151 33" fill="none" xmlns="http://www.w3.org/2000/svg">
<line x1="72.5" y1="4.98926" x2="72.5" y2="28.0454" stroke="white" stroke-width="5"/>
<line x1="84" y1="5" x2="84" y2="28.0562" stroke="white" stroke-width="5"/>
<path d="M131.503 17.7099L117.387 28.0543C116.396 28.7803 115 28.0727 115 26.8443V6.15566C115 4.92726 116.396 4.21966 117.387 4.94574L131.503 15.2901C132.321 15.8894 132.321 17.1106 131.503 17.7099Z" fill="white" stroke="white"/>
<path d="M20.497 17.7099L34.6134 28.0543C35.6042 28.7803 37 28.0727 37 26.8443V6.15566C37 4.92726 35.6042 4.21966 34.6134 4.94574L20.497 15.2901C19.6792 15.8894 19.6792 17.1106 20.497 17.7099Z" fill="white" stroke="white"/>
<path d="M148.503 17.7099L134.387 28.0543C133.396 28.7803 132 28.0727 132 26.8443V6.15566C132 4.92726 133.396 4.21966 134.387 4.94574L148.503 15.2901C149.321 15.8894 149.321 17.1106 148.503 17.7099Z" fill="white" stroke="white"/>
<path d="M2.49702 17.7099L16.6134 28.0543C17.6042 28.7803 19 28.0727 19 26.8443V6.15566C19 4.92726 17.6042 4.21966 16.6134 4.94574L2.49702 15.2901C1.67918 15.8894 1.67918 17.1106 2.49702 17.7099Z" fill="white" stroke="white"/>
</svg>
