<svg width="117" height="51" viewBox="0 0 117 51" fill="none" xmlns="http://www.w3.org/2000/svg">
<g filter="url(#filter0_f_1163_76)">
<path d="M16.3491 24.9731C17.0347 24.1226 17.6631 23.4243 18.2344 22.8784C18.8057 22.3198 19.3071 21.8818 19.7388 21.5645C20.1831 21.2344 20.5576 21.0059 20.8623 20.8789C21.167 20.752 21.3955 20.6885 21.5479 20.6885C21.751 20.6885 21.9731 20.7646 22.2144 20.917C22.4556 21.0693 22.6904 21.2534 22.9189 21.4692C23.1602 21.6851 23.3823 21.9072 23.5854 22.1357C23.7886 22.3643 23.96 22.5483 24.0996 22.688C24.2393 22.8276 24.3218 22.98 24.3472 23.145C24.3853 23.2974 24.4043 23.4561 24.4043 23.6211C24.4043 24.2178 24.3027 24.8716 24.0996 25.5825C23.8965 26.2808 23.6299 26.979 23.2998 27.6772C22.9697 28.3628 22.5952 29.0166 22.1763 29.6387C21.7573 30.2607 21.332 30.7876 20.9004 31.2192C21.2686 31.0669 21.6431 30.8828 22.0239 30.667C22.4175 30.4385 22.8047 30.1973 23.1855 29.9434C23.5664 29.6895 23.9409 29.4292 24.3091 29.1626C24.6772 28.8833 25.0264 28.6104 25.3564 28.3438C26.1309 27.7344 26.8799 27.0806 27.6035 26.3823L28.4604 27.3154C28.0415 27.709 27.5718 28.1279 27.0513 28.5723C26.5435 29.0166 26.0103 29.4546 25.4517 29.8862C24.8931 30.3179 24.3218 30.7305 23.7378 31.124C23.1665 31.5176 22.6143 31.8667 22.0811 32.1714C21.5479 32.4761 21.0527 32.7173 20.5957 32.895C20.1387 33.0728 19.7451 33.1616 19.415 33.1616C19.1865 33.1616 18.9009 33.0918 18.5581 32.9521C18.2153 32.8252 17.8789 32.6665 17.5488 32.4761C17.2314 32.2856 16.9521 32.0825 16.7109 31.8667C16.4824 31.6382 16.3682 31.4351 16.3682 31.2573C16.3682 31.1558 16.4316 31.0669 16.5586 30.9907C16.6982 30.9019 16.895 30.7495 17.1489 30.5337C17.4028 30.3179 17.7075 29.9941 18.063 29.5625C18.4185 29.1309 18.8184 28.5024 19.2627 27.6772C19.5039 27.2202 19.7324 26.7505 19.9482 26.2681C20.1641 25.7729 20.3545 25.3159 20.5195 24.897C20.6846 24.4653 20.8115 24.0972 20.9004 23.7925C21.002 23.4751 21.0527 23.2593 21.0527 23.145C21.0527 23.0308 21.0337 22.9546 20.9956 22.9165C20.9702 22.8657 20.9448 22.8276 20.9194 22.8022C20.8687 22.7896 20.8242 22.7896 20.7861 22.8022C20.6084 22.853 20.2466 23.1387 19.7007 23.6592C19.1675 24.167 18.5391 24.9033 17.8154 25.8682C17.0918 26.8203 16.3237 27.9883 15.5112 29.3721C14.6987 30.7432 13.9307 32.311 13.207 34.0757C12.6104 35.7769 12.0137 37.4971 11.417 39.2363C10.8203 40.9756 10.2363 42.7085 9.66504 44.4351L4.82812 45.5776C5.56445 43.4829 6.33252 41.4009 7.13232 39.3315C7.91943 37.2749 8.70654 35.2119 9.49365 33.1426C10.2681 31.0859 11.0361 29.0229 11.7979 26.9536C12.5469 24.8843 13.2642 22.8086 13.9497 20.7266C13.9878 20.5869 14.0195 20.4917 14.0449 20.4409C14.083 20.3774 14.1528 20.3457 14.2544 20.3457C14.4575 20.4092 14.7051 20.5298 14.9971 20.7075C15.2891 20.8726 15.5747 21.0693 15.854 21.2979C16.146 21.5137 16.4062 21.7358 16.6348 21.9644C16.8633 22.1929 17.022 22.3896 17.1108 22.5547C17.1362 22.5928 17.1299 22.6626 17.0918 22.7642C17.0664 22.853 17.0347 22.9546 16.9966 23.0688L16.3491 24.9731ZM31.6025 30.667C31.8057 30.667 32.0786 30.5781 32.4214 30.4004C32.7769 30.2227 33.1641 30.0005 33.583 29.7339C34.002 29.4546 34.4399 29.1499 34.897 28.8198C35.354 28.4897 35.7793 28.166 36.1729 27.8486C36.5791 27.5312 36.9409 27.2393 37.2583 26.9727C37.5757 26.7061 37.8105 26.5093 37.9629 26.3823C38.0771 26.4966 38.2104 26.6426 38.3628 26.8203C38.5278 26.998 38.6802 27.1631 38.8198 27.3154C38.5405 27.5947 38.1914 27.9375 37.7725 28.3438C37.3535 28.7373 36.8965 29.1436 36.4014 29.5625C35.9189 29.9814 35.4111 30.4004 34.8779 30.8193C34.3574 31.2383 33.8433 31.6128 33.3354 31.9429C32.8403 32.2729 32.377 32.5396 31.9453 32.7427C31.5137 32.9458 31.1519 33.0474 30.8599 33.0474C30.4663 33.0474 30.0474 32.9077 29.603 32.6284C29.1714 32.3491 28.7651 32.0254 28.3843 31.6572C28.0034 31.2764 27.6797 30.8955 27.4131 30.5146C27.1465 30.1338 26.9941 29.8481 26.9561 29.6577C26.9307 29.5815 26.918 29.4927 26.918 29.3911C26.918 29.2769 26.918 29.1562 26.918 29.0293C26.918 28.3945 27.0005 27.5947 27.1655 26.6299C27.3179 25.6523 27.5273 24.624 27.7939 23.5449C28.0605 22.4531 28.3652 21.374 28.708 20.3076C29.0635 19.2285 29.4316 18.2764 29.8125 17.4512C30.5869 15.7627 31.3804 14.2646 32.1929 12.957C33.0181 11.6494 33.8242 10.5132 34.6113 9.54834C35.3984 8.5708 36.1538 7.75195 36.8774 7.0918C37.6011 6.43164 38.2485 5.89844 38.8198 5.49219C39.4038 5.08594 39.8926 4.79395 40.2861 4.61621C40.6924 4.43848 40.9717 4.34961 41.124 4.34961C41.3652 4.43848 41.6064 4.57178 41.8477 4.74951C42.1016 4.91455 42.3364 5.09229 42.5522 5.28271C42.7681 5.47314 42.9585 5.66357 43.1235 5.854C43.2886 6.03174 43.4092 6.16504 43.4854 6.25391C43.5869 6.35547 43.6504 6.45703 43.6758 6.55859C43.7139 6.64746 43.7329 6.76807 43.7329 6.92041C43.7329 7.2251 43.6567 7.64404 43.5044 8.17725C43.3521 8.71045 43.0664 9.38965 42.6475 10.2148C42.2285 11.0273 41.6445 12.0049 40.8955 13.1475C40.1592 14.29 39.1943 15.623 38.001 17.1465C37.4424 17.8574 36.8521 18.5811 36.23 19.3174C35.6968 19.9521 35.0811 20.644 34.3828 21.3931C33.6846 22.1421 32.9673 22.8594 32.231 23.5449C31.8628 24.9414 31.6025 26.1729 31.4502 27.2393C31.3105 28.3057 31.2407 29.1372 31.2407 29.7339C31.2407 30.1274 31.2725 30.3813 31.3359 30.4956C31.3994 30.6099 31.4883 30.667 31.6025 30.667ZM34.6494 16.7085C34.4336 17.1909 34.2305 17.6606 34.04 18.1177C33.8623 18.5747 33.6909 19.0254 33.5259 19.4697C33.9194 19.0254 34.2749 18.6001 34.5923 18.1938C34.9224 17.7876 35.2017 17.4385 35.4302 17.1465C35.6968 16.8037 35.938 16.48 36.1538 16.1753C37.0425 14.9312 37.8105 13.7886 38.458 12.7476C39.1055 11.7065 39.6387 10.7925 40.0576 10.0054C40.4766 9.20557 40.7812 8.54541 40.9717 8.0249C41.1748 7.4917 41.2764 7.11084 41.2764 6.88232C41.2764 6.81885 41.27 6.77441 41.2573 6.74902C41.2573 6.71094 41.2256 6.69189 41.1621 6.69189C41.0479 6.69189 40.7876 6.88232 40.3813 7.26318C39.9751 7.63135 39.4736 8.22168 38.877 9.03418C38.293 9.84668 37.6328 10.8877 36.8965 12.1572C36.1729 13.4141 35.4238 14.9312 34.6494 16.7085ZM48.665 30.3242C48.665 30.4004 48.7031 30.4385 48.7793 30.4385C48.8936 30.4385 49.084 30.356 49.3506 30.1909C49.6172 30.0259 49.9219 29.8164 50.2646 29.5625C50.6074 29.3086 50.9692 29.0229 51.3501 28.7056C51.7437 28.3882 52.1182 28.0771 52.4736 27.7725C52.8291 27.4678 53.1465 27.1885 53.4258 26.9346C53.7178 26.6807 53.9399 26.4839 54.0923 26.3442C54.2065 26.4585 54.3462 26.6108 54.5112 26.8013C54.689 26.9917 54.8477 27.1631 54.9873 27.3154C54.6826 27.5947 54.3145 27.9375 53.8828 28.3438C53.4639 28.7373 53.0068 29.1499 52.5117 29.5815C52.0293 30.0132 51.5278 30.4448 51.0073 30.8765C50.4868 31.2954 49.979 31.6699 49.4839 32C48.9888 32.3301 48.519 32.5967 48.0747 32.7998C47.6304 33.0156 47.2432 33.1235 46.9131 33.1235C46.6846 33.1235 46.4307 33.0791 46.1514 32.9902C45.8848 32.9014 45.6372 32.7744 45.4087 32.6094C45.1802 32.457 44.9897 32.2729 44.8374 32.0571C44.6851 31.8413 44.6089 31.6001 44.6089 31.3335C44.6089 31.2319 44.6025 31.1113 44.5898 30.9717C44.5898 30.8193 44.6025 30.6289 44.6279 30.4004C44.6533 30.1592 44.7041 29.8735 44.7803 29.5435C44.8564 29.2007 44.9707 28.7817 45.123 28.2866C44.7041 28.731 44.209 29.1943 43.6377 29.6768C43.0791 30.1592 42.4888 30.6162 41.8667 31.0479C41.2446 31.4795 40.6162 31.8667 39.9814 32.2095C39.3594 32.5649 38.7817 32.8315 38.2485 33.0093C38.1851 33.0347 38.1343 33.0474 38.0962 33.0474C38.0581 33.0474 38.02 33.0474 37.9819 33.0474C37.855 33.0474 37.6899 32.9839 37.4868 32.8569C37.271 32.73 37.0615 32.5586 36.8584 32.3428C36.6553 32.1396 36.4839 31.9048 36.3442 31.6382C36.1919 31.3716 36.1157 31.105 36.1157 30.8384C36.1157 30.7622 36.1538 30.5083 36.23 30.0767C36.3062 29.645 36.4902 29.0991 36.7822 28.439C37.0615 27.7661 37.4805 27.0171 38.0391 26.1919C38.5977 25.354 39.3594 24.4971 40.3242 23.6211C40.8193 23.1768 41.3525 22.7578 41.9238 22.3643C42.4062 22.0342 42.9585 21.6978 43.5806 21.355C44.2026 21.0122 44.8564 20.7393 45.542 20.5361C45.5674 20.5361 45.5864 20.5298 45.5991 20.5171C45.6245 20.5044 45.6562 20.5107 45.6943 20.5361C45.8467 20.5869 46.0244 20.6694 46.2275 20.7837C46.4434 20.8853 46.6528 20.9995 46.856 21.1265C47.0718 21.2407 47.2559 21.3613 47.4082 21.4883C47.5732 21.6025 47.6812 21.6978 47.7319 21.7739C47.7446 21.7993 47.7446 21.8184 47.7319 21.8311L47.6938 21.8691C47.1226 22.1738 46.583 22.5166 46.0752 22.8975C45.5674 23.2656 45.1167 23.6147 44.7231 23.9448C44.2661 24.3384 43.8408 24.7256 43.4473 25.1064C42.5205 26.0205 41.8794 26.814 41.5239 27.4868C41.1685 28.147 40.9907 28.623 40.9907 28.915C40.9907 29.1309 41.0796 29.2388 41.2573 29.2388C41.4351 29.2388 41.6572 29.1689 41.9238 29.0293C42.2031 28.877 42.5142 28.6802 42.8569 28.439C43.1997 28.1851 43.5742 27.8931 43.9805 27.563C44.3994 27.2202 44.8311 26.8647 45.2754 26.4966C45.6689 26.1792 46.0498 25.8364 46.418 25.4683C46.7354 25.1636 47.0654 24.8145 47.4082 24.4209C47.751 24.0273 48.043 23.6274 48.2842 23.2212C48.2842 23.2085 48.2905 23.1958 48.3032 23.1831C48.3159 23.1704 48.335 23.1704 48.3604 23.1831C48.5 23.2847 48.6587 23.4561 48.8364 23.6973C49.0142 23.9258 49.1792 24.1797 49.3315 24.459C49.4839 24.7383 49.6108 25.0112 49.7124 25.2778C49.8267 25.5317 49.8838 25.7285 49.8838 25.8682C49.5918 26.4648 49.3633 27.0107 49.1982 27.5059C49.0459 27.9883 48.9253 28.4136 48.8364 28.7817C48.7603 29.1499 48.7095 29.4673 48.6841 29.7339C48.6714 29.9878 48.665 30.1846 48.665 30.3242ZM70.2788 27.2773C69.1362 28.3057 67.9619 29.2769 66.7559 30.1909C65.5498 31.105 64.3438 31.9873 63.1377 32.8379C62.96 33.3711 62.7568 33.936 62.5283 34.5327C62.2998 35.1294 62.0205 35.8086 61.6904 36.5703C61.3223 37.4082 60.9033 38.2271 60.4336 39.0269C59.9639 39.8267 59.4624 40.5757 58.9292 41.2739C58.4087 41.9849 57.8691 42.6323 57.3105 43.2163C56.752 43.8003 56.1997 44.3018 55.6538 44.7207C55.1206 45.1523 54.6064 45.4824 54.1113 45.7109C53.6035 45.9521 53.1401 46.0728 52.7212 46.0728C52.5181 46.0728 52.2705 45.9966 51.9785 45.8442C51.6865 45.6919 51.4072 45.4951 51.1406 45.2539C50.874 45.0254 50.6519 44.7778 50.4741 44.5112C50.2837 44.2446 50.1885 43.9971 50.1885 43.7686C50.1885 42.9688 50.4043 42.1816 50.8359 41.4072C51.2676 40.6455 51.8643 39.8774 52.626 39.103C53.375 38.3286 54.2573 37.5415 55.2729 36.7417C56.3013 35.9546 57.4058 35.1421 58.5864 34.3042C58.9546 33.3267 59.3101 32.311 59.6528 31.2573C60.0083 30.1909 60.3511 29.1372 60.6812 28.0962C60.1353 28.7944 59.6084 29.4038 59.1006 29.9243C58.5928 30.4448 58.123 30.8892 57.6914 31.2573C57.2598 31.6128 56.8853 31.8984 56.5679 32.1143C56.2505 32.3428 56.0093 32.5142 55.8442 32.6284C55.7427 32.6919 55.6221 32.7363 55.4824 32.7617C55.3428 32.7998 55.2158 32.8188 55.1016 32.8188C54.8604 32.8188 54.5938 32.7427 54.3018 32.5903C54.0098 32.4507 53.7432 32.2666 53.502 32.0381C53.248 31.8223 53.0386 31.5811 52.8735 31.3145C52.6958 31.0479 52.6069 30.7939 52.6069 30.5527C52.6069 30.2734 52.7021 29.8291 52.8926 29.2197C53.0703 28.5977 53.3179 27.8486 53.6353 26.9727C53.9399 26.0967 54.3018 25.1128 54.7207 24.021C55.1396 22.9292 55.5903 21.7676 56.0728 20.5361C56.0981 20.4727 56.1172 20.4473 56.1299 20.46C56.1553 20.46 56.1934 20.46 56.2441 20.46C56.4854 20.498 56.8154 20.5996 57.2344 20.7646C57.6533 20.917 58.0596 21.0884 58.4531 21.2788C58.8594 21.4692 59.2085 21.6533 59.5005 21.8311C59.7925 21.9961 59.9385 22.1104 59.9385 22.1738C59.9004 22.2627 59.7988 22.4722 59.6338 22.8022C59.4814 23.1323 59.2974 23.5322 59.0815 24.002C58.8784 24.459 58.6562 24.9604 58.415 25.5063C58.1865 26.0396 57.9707 26.5537 57.7676 27.0488C57.5771 27.5439 57.4185 27.9946 57.2915 28.4009C57.1646 28.7944 57.1011 29.0864 57.1011 29.2769C57.1011 29.3276 57.1265 29.353 57.1772 29.353C57.2661 29.353 57.4565 29.2388 57.7485 29.0103C58.0532 28.7817 58.4277 28.4199 58.8721 27.9248C59.3164 27.4297 59.8179 26.8013 60.3765 26.0396C60.9351 25.2651 61.5254 24.3384 62.1475 23.2593C62.4014 22.4214 62.6108 21.7549 62.7759 21.2598C62.9409 20.752 63.0488 20.498 63.0996 20.498C63.1758 20.498 63.3726 20.5933 63.6899 20.7837C64.0073 20.9741 64.3438 21.2026 64.6992 21.4692C65.0547 21.7231 65.3721 21.9834 65.6514 22.25C65.9307 22.5039 66.0703 22.7007 66.0703 22.8403C66.0703 22.9038 66.064 22.9609 66.0513 23.0117C66.0386 23.0625 66.0195 23.1196 65.9941 23.1831C65.7021 24.0718 65.4482 24.8779 65.2324 25.6016C65.0166 26.3125 64.8198 26.9663 64.6421 27.563C64.4771 28.1597 64.3247 28.7119 64.1851 29.2197C64.0581 29.7148 63.9312 30.1973 63.8042 30.667C64.7563 29.9814 65.7021 29.2832 66.6416 28.5723C67.5811 27.8486 68.5078 27.0933 69.4219 26.3062L70.2788 27.2773ZM52.6069 43.978C52.8354 43.978 53.1528 43.7559 53.5591 43.3115C53.9653 42.8799 54.4033 42.3213 54.873 41.6357C55.3428 40.9502 55.8125 40.1821 56.2822 39.3315C56.7646 38.4937 57.1899 37.6685 57.5581 36.856C57.0757 37.2622 56.5361 37.7065 55.9395 38.189C55.3428 38.6714 54.7842 39.1982 54.2637 39.7695C53.7432 40.3408 53.3052 40.9502 52.9497 41.5977C52.5942 42.2578 52.4165 42.9561 52.4165 43.6924C52.4165 43.8828 52.48 43.978 52.6069 43.978ZM73.3066 30.667C73.5098 30.667 73.7827 30.5781 74.1255 30.4004C74.481 30.2227 74.8682 30.0005 75.2871 29.7339C75.7061 29.4546 76.144 29.1499 76.6011 28.8198C77.0581 28.4897 77.4834 28.166 77.877 27.8486C78.2832 27.5312 78.645 27.2393 78.9624 26.9727C79.2798 26.7061 79.5146 26.5093 79.667 26.3823C79.7812 26.4966 79.9146 26.6426 80.0669 26.8203C80.2319 26.998 80.3843 27.1631 80.5239 27.3154C80.2446 27.5947 79.8955 27.9375 79.4766 28.3438C79.0576 28.7373 78.6006 29.1436 78.1055 29.5625C77.623 29.9814 77.1152 30.4004 76.582 30.8193C76.0615 31.2383 75.5474 31.6128 75.0396 31.9429C74.5444 32.2729 74.0811 32.5396 73.6494 32.7427C73.2178 32.9458 72.856 33.0474 72.564 33.0474C72.1704 33.0474 71.7515 32.9077 71.3071 32.6284C70.8755 32.3491 70.4692 32.0254 70.0884 31.6572C69.7075 31.2764 69.3838 30.8955 69.1172 30.5146C68.8506 30.1338 68.6982 29.8481 68.6602 29.6577C68.6348 29.5815 68.6221 29.4927 68.6221 29.3911C68.6221 29.2769 68.6221 29.1562 68.6221 29.0293C68.6221 28.3945 68.7046 27.5947 68.8696 26.6299C69.022 25.6523 69.2314 24.624 69.498 23.5449C69.7646 22.4531 70.0693 21.374 70.4121 20.3076C70.7676 19.2285 71.1357 18.2764 71.5166 17.4512C72.291 15.7627 73.0845 14.2646 73.897 12.957C74.7222 11.6494 75.5283 10.5132 76.3154 9.54834C77.1025 8.5708 77.8579 7.75195 78.5815 7.0918C79.3052 6.43164 79.9526 5.89844 80.5239 5.49219C81.1079 5.08594 81.5967 4.79395 81.9902 4.61621C82.3965 4.43848 82.6758 4.34961 82.8281 4.34961C83.0693 4.43848 83.3105 4.57178 83.5518 4.74951C83.8057 4.91455 84.0405 5.09229 84.2563 5.28271C84.4722 5.47314 84.6626 5.66357 84.8276 5.854C84.9927 6.03174 85.1133 6.16504 85.1895 6.25391C85.291 6.35547 85.3545 6.45703 85.3799 6.55859C85.418 6.64746 85.437 6.76807 85.437 6.92041C85.437 7.2251 85.3608 7.64404 85.2085 8.17725C85.0562 8.71045 84.7705 9.38965 84.3516 10.2148C83.9326 11.0273 83.3486 12.0049 82.5996 13.1475C81.8633 14.29 80.8984 15.623 79.7051 17.1465C79.1465 17.8574 78.5562 18.5811 77.9341 19.3174C77.4009 19.9521 76.7852 20.644 76.0869 21.3931C75.3887 22.1421 74.6714 22.8594 73.9351 23.5449C73.5669 24.9414 73.3066 26.1729 73.1543 27.2393C73.0146 28.3057 72.9448 29.1372 72.9448 29.7339C72.9448 30.1274 72.9766 30.3813 73.04 30.4956C73.1035 30.6099 73.1924 30.667 73.3066 30.667ZM76.3535 16.7085C76.1377 17.1909 75.9346 17.6606 75.7441 18.1177C75.5664 18.5747 75.395 19.0254 75.23 19.4697C75.6235 19.0254 75.979 18.6001 76.2964 18.1938C76.6265 17.7876 76.9058 17.4385 77.1343 17.1465C77.4009 16.8037 77.6421 16.48 77.8579 16.1753C78.7466 14.9312 79.5146 13.7886 80.1621 12.7476C80.8096 11.7065 81.3428 10.7925 81.7617 10.0054C82.1807 9.20557 82.4854 8.54541 82.6758 8.0249C82.8789 7.4917 82.9805 7.11084 82.9805 6.88232C82.9805 6.81885 82.9741 6.77441 82.9614 6.74902C82.9614 6.71094 82.9297 6.69189 82.8662 6.69189C82.752 6.69189 82.4917 6.88232 82.0854 7.26318C81.6792 7.63135 81.1777 8.22168 80.5811 9.03418C79.9971 9.84668 79.3369 10.8877 78.6006 12.1572C77.877 13.4141 77.1279 14.9312 76.3535 16.7085ZM80.8857 33.0474C80.6953 33.0474 80.4541 32.9775 80.1621 32.8379C79.8701 32.7109 79.5908 32.5459 79.3242 32.3428C79.0576 32.1523 78.8291 31.9365 78.6387 31.6953C78.4482 31.4541 78.353 31.2192 78.353 30.9907C78.48 30.4321 78.6514 29.791 78.8672 29.0674C79.083 28.3438 79.3179 27.6074 79.5718 26.8584C79.813 26.1094 80.0732 25.3794 80.3525 24.6685C80.6191 23.9448 80.8604 23.3037 81.0762 22.7451C81.3047 22.1865 81.5015 21.7358 81.6665 21.3931C81.8315 21.0503 81.9395 20.8789 81.9902 20.8789C82.0664 20.8789 82.2568 20.9614 82.5615 21.1265C82.8662 21.2915 83.1836 21.4946 83.5137 21.7358C83.8564 21.9644 84.1611 22.2119 84.4277 22.4785C84.6943 22.7324 84.8276 22.9546 84.8276 23.145C84.8276 23.1831 84.8213 23.2339 84.8086 23.2974C84.7959 23.3481 84.7769 23.418 84.7515 23.5068C84.6499 23.8242 84.5166 24.1987 84.3516 24.6304C84.1992 25.062 84.0342 25.5127 83.8564 25.9824C83.6787 26.4395 83.501 26.9028 83.3232 27.3726C83.1455 27.8296 82.9868 28.2612 82.8472 28.6675C82.7075 29.0737 82.5933 29.4292 82.5044 29.7339C82.4155 30.0386 82.3711 30.2607 82.3711 30.4004C82.3711 30.4766 82.4092 30.5146 82.4854 30.5146C82.625 30.5146 82.8345 30.4321 83.1138 30.2671C83.3931 30.1021 83.7104 29.8862 84.0659 29.6196C84.4341 29.353 84.8149 29.061 85.2085 28.7437C85.6021 28.4263 85.9766 28.1152 86.332 27.8105C86.7002 27.4932 87.0303 27.2075 87.3223 26.9536C87.6143 26.6997 87.8364 26.5093 87.9888 26.3823C88.103 26.4966 88.2363 26.6426 88.3887 26.8203C88.5537 26.998 88.7061 27.1631 88.8457 27.3154C88.5664 27.5947 88.2173 27.9375 87.7983 28.3438C87.3794 28.7373 86.9224 29.1436 86.4272 29.5625C85.9448 29.9814 85.437 30.4004 84.9038 30.8193C84.3833 31.2383 83.8755 31.6128 83.3804 31.9429C82.8853 32.2729 82.4219 32.5396 81.9902 32.7427C81.5586 32.9458 81.1904 33.0474 80.8857 33.0474ZM88.4268 15.0708C88.4141 15.1216 88.3633 15.2485 88.2744 15.4517C88.1982 15.6421 88.103 15.8706 87.9888 16.1372C87.8745 16.3911 87.7412 16.6641 87.5889 16.9561C87.4492 17.2354 87.3096 17.4956 87.1699 17.7368C87.0303 17.978 86.897 18.1812 86.77 18.3462C86.6431 18.4985 86.5415 18.5747 86.4653 18.5747C86.2368 18.562 85.9575 18.4922 85.6274 18.3652C85.3101 18.2383 84.999 18.0986 84.6943 17.9463C84.4023 17.7812 84.1484 17.6226 83.9326 17.4702C83.7295 17.3179 83.6279 17.21 83.6279 17.1465C83.6279 16.8799 83.7041 16.5371 83.8564 16.1182C84.0088 15.6865 84.1865 15.2739 84.3896 14.8804C84.5928 14.4741 84.7959 14.125 84.999 13.833C85.2148 13.541 85.3799 13.395 85.4941 13.395C85.7227 13.395 86.002 13.4712 86.332 13.6235C86.6621 13.7632 86.9795 13.9282 87.2842 14.1187C87.6016 14.3091 87.8682 14.4995 88.084 14.6899C88.3125 14.8677 88.4268 14.9946 88.4268 15.0708ZM87.4365 26.7441C87.7285 26.4648 88.0649 26.1475 88.4458 25.792C88.814 25.4365 89.1821 25.0493 89.5503 24.6304C89.9312 24.2114 90.2803 23.7607 90.5977 23.2783C90.9277 22.7959 91.188 22.2754 91.3784 21.7168C91.4292 21.4248 91.5054 21.1201 91.6069 20.8027C91.7212 20.4727 91.8418 20.1743 91.9688 19.9077C92.1084 19.6411 92.2417 19.4189 92.3687 19.2412C92.4956 19.0635 92.6099 18.9746 92.7114 18.9746C92.8638 19.0635 93.0923 19.2349 93.397 19.4888C93.7017 19.73 94.0063 19.9902 94.311 20.2695C94.6157 20.5488 94.8823 20.8091 95.1108 21.0503C95.3521 21.2788 95.4727 21.4185 95.4727 21.4692C95.3203 22.0532 95.2441 22.5801 95.2441 23.0498C95.2568 23.5195 95.2949 23.9829 95.3584 24.4399C95.4346 24.897 95.5107 25.3857 95.5869 25.9062C95.6758 26.4141 95.7202 27.0044 95.7202 27.6772C95.7202 28.0835 95.6504 28.5532 95.5107 29.0864C95.3838 29.6069 95.1553 30.0767 94.8252 30.4956C95.4727 30.1147 96.1138 29.6895 96.7485 29.2197C97.3833 28.7373 97.9482 28.2866 98.4434 27.8677C99.0273 27.3726 99.5859 26.8774 100.119 26.3823L100.976 27.3154C100.557 27.709 100.1 28.1279 99.605 28.5723C99.1226 29.0166 98.6147 29.4546 98.0815 29.8862C97.561 30.3179 97.0278 30.7305 96.4819 31.124C95.936 31.5176 95.3965 31.8667 94.8633 32.1714C94.3301 32.4761 93.8159 32.7173 93.3208 32.895C92.8257 33.0728 92.3623 33.1616 91.9307 33.1616C91.5625 33.1616 91.1562 33.0728 90.7119 32.895C90.2676 32.7173 89.8486 32.5015 89.4551 32.2476C89.0615 31.9937 88.7188 31.7271 88.4268 31.4478C88.1348 31.1685 87.9634 30.9336 87.9126 30.7432C87.9126 30.7178 87.938 30.667 87.9888 30.5908C88.0396 30.502 88.103 30.4131 88.1792 30.3242C88.2427 30.2354 88.3125 30.1592 88.3887 30.0957C88.4521 30.0195 88.5029 29.9814 88.541 29.9814C88.6172 29.9814 88.7695 30.0386 88.998 30.1528C89.2266 30.2671 89.6074 30.3242 90.1406 30.3242C90.4326 30.3242 90.6802 30.248 90.8833 30.0957C91.0991 29.9434 91.2769 29.7402 91.4165 29.4863C91.5562 29.2324 91.6577 28.9404 91.7212 28.6104C91.7847 28.2803 91.8164 27.9312 91.8164 27.563C91.8164 27.0298 91.791 26.5156 91.7402 26.0205C91.6895 25.5127 91.6323 25.0239 91.5688 24.5542C91.353 24.8081 91.1055 25.0747 90.8262 25.354C90.5469 25.6333 90.2612 25.9126 89.9692 26.1919C89.6899 26.4585 89.4043 26.7251 89.1123 26.9917C88.833 27.2456 88.5791 27.4741 88.3506 27.6772L87.4365 26.7441ZM101.966 33.0474C101.75 33.0474 101.465 32.9458 101.109 32.7427C100.767 32.5522 100.43 32.311 100.1 32.019C99.77 31.7397 99.4844 31.4478 99.2432 31.1431C99.002 30.8384 98.8813 30.5781 98.8813 30.3623C98.8813 29.9814 98.9893 29.3784 99.2051 28.5532C99.4082 27.728 99.6812 26.7886 100.024 25.7349C100.367 24.6685 100.754 23.5322 101.186 22.3262C101.63 21.1201 102.074 19.9395 102.519 18.7842H99.8335H99.8145C99.8018 18.7842 99.7954 18.7715 99.7954 18.7461C99.7954 18.6699 99.8271 18.562 99.8906 18.4224C99.9414 18.27 100.011 18.1177 100.1 17.9653C100.176 17.8003 100.271 17.6543 100.386 17.5273C100.487 17.3877 100.589 17.2988 100.69 17.2607L103.166 17.1465C103.521 16.2832 103.858 15.4897 104.175 14.7661C104.505 14.0298 104.797 13.4014 105.051 12.8809C105.115 12.7412 105.178 12.5952 105.242 12.4429C105.318 12.2778 105.419 12.1191 105.546 11.9668C105.686 11.8018 105.864 11.6367 106.08 11.4717C106.308 11.2939 106.613 11.1162 106.994 10.9385C107.273 10.7988 107.609 10.6465 108.003 10.4814C108.409 10.3164 108.803 10.1641 109.184 10.0244C109.577 9.88477 109.933 9.77051 110.25 9.68164C110.567 9.58008 110.796 9.5293 110.936 9.5293C111.062 9.5293 111.126 9.55469 111.126 9.60547V9.64355C111.126 9.65625 111.113 9.68799 111.088 9.73877C111.012 9.86572 110.872 10.145 110.669 10.5767C110.466 10.9956 110.212 11.5288 109.907 12.1763C109.615 12.811 109.285 13.541 108.917 14.3662C108.562 15.1787 108.193 16.042 107.812 16.9561L112.383 16.7847C112.51 16.7847 112.548 16.8608 112.497 17.0132C112.446 17.1655 112.351 17.3433 112.211 17.5464C112.072 17.7495 111.907 17.959 111.716 18.1748C111.539 18.3906 111.386 18.5557 111.259 18.6699C111.234 18.6953 111.183 18.7207 111.107 18.7461C111.031 18.7715 110.936 18.7842 110.821 18.7842H107.051C106.594 19.8887 106.156 21.0059 105.737 22.1357C105.318 23.2656 104.943 24.3384 104.613 25.354C104.283 26.3696 104.017 27.3027 103.813 28.1533C103.623 29.0039 103.528 29.7021 103.528 30.248C103.528 30.3242 103.566 30.3623 103.642 30.3623C103.782 30.3623 103.991 30.2861 104.271 30.1338C104.55 29.9688 104.861 29.7593 105.204 29.5054C105.559 29.2515 105.934 28.9722 106.327 28.6675C106.721 28.3628 107.095 28.0645 107.451 27.7725C107.806 27.4678 108.124 27.1948 108.403 26.9536C108.695 26.6997 108.917 26.5093 109.069 26.3823C109.184 26.4966 109.317 26.6426 109.469 26.8203C109.634 26.998 109.787 27.1631 109.926 27.3154C109.647 27.5947 109.298 27.9375 108.879 28.3438C108.46 28.7373 108.003 29.1436 107.508 29.5625C107.025 29.9814 106.518 30.4004 105.984 30.8193C105.464 31.2383 104.95 31.6128 104.442 31.9429C103.947 32.2729 103.483 32.5396 103.052 32.7427C102.62 32.9458 102.258 33.0474 101.966 33.0474Z" fill="#8FBA7F"/>
</g>
<defs>
<filter id="filter0_f_1163_76" x="0.828125" y="0.349609" width="115.745" height="49.7231" filterUnits="userSpaceOnUse" color-interpolation-filters="sRGB">
<feFlood flood-opacity="0" result="BackgroundImageFix"/>
<feBlend mode="normal" in="SourceGraphic" in2="BackgroundImageFix" result="shape"/>
<feGaussianBlur stdDeviation="2" result="effect1_foregroundBlur_1163_76"/>
</filter>
</defs>
</svg>
