<svg width="9" height="13" viewBox="0 0 9 13" fill="none" xmlns="http://www.w3.org/2000/svg">
<path d="M1.49331 6.38962e-05C1.68542 -0.000408173 1.87524 0.0302057 2.04882 0.0896559C2.22239 0.149105 2.37531 0.23588 2.49634 0.343603L8.70746 5.91451C8.8966 6.08064 9 6.28903 9 6.50409C9 6.71915 8.8966 6.92754 8.70746 7.09368L2.27773 12.6646C2.05946 12.8542 1.7458 12.9734 1.40577 12.9961C1.06573 13.0187 0.727162 12.9429 0.464551 12.7853C0.201939 12.6277 0.0367928 12.4012 0.00544167 12.1557C-0.0259094 11.9102 0.0791025 11.6657 0.297378 11.4761L6.04556 6.49945L0.49027 1.52278C0.33302 1.38649 0.233132 1.22053 0.202424 1.04454C0.171717 0.868546 0.211473 0.689883 0.316994 0.529694C0.422513 0.369505 0.589377 0.234492 0.797842 0.140632C1.00631 0.046771 1.24765 -0.00200844 1.49331 6.38962e-05Z" fill="#424242"/>
</svg>
